<svg id="Layer_1" data-name="Layer 1" xmlns="http://www.w3.org/2000/svg" viewBox="0 0 57.13 56.64"><path d="M52.88 28.16v23.5a4 4 0 01-3.94 4H13.37a3.92 3.92 0 01-3.39-2 4 4 0 01-.56-2V25.83a1.65 1.65 0 011.64-1.66h37.88a4 4 0 013.94 3.99z" transform="translate(-3.67 -4.68)" fill="#92d0ee"/><path d="M13.37 56.17A4.39 4.39 0 019.55 54a4.53 4.53 0 01-.62-2.29V25.83a2.15 2.15 0 012.14-2.16h37.88a4.47 4.47 0 014.44 4.5v23.5A4.47 4.47 0 0149 56.16zm35.58-31.51H11.06a1.15 1.15 0 00-1.14 1.16v25.85a3.53 3.53 0 00.49 1.79 3.4 3.4 0 003 1.71H49a3.47 3.47 0 003.44-3.5V28.16a3.47 3.47 0 00-3.49-3.5z" transform="translate(-3.67 -4.68)" fill="#123456"/><rect x="29.59" y="12.89" width="30.09" height="19.73" rx="2.15" ry="2.15" transform="rotate(-56.9 38.492 23.804)" fill="#92d0ee"/><path d="M44.06 40.43a2.62 2.62 0 01-1.44-.43l-12.94-8.43a2.65 2.65 0 01-.77-3.66L43 6.29a2.65 2.65 0 013.66-.77l12.94 8.43a2.65 2.65 0 01.77 3.66L46.28 39.23a2.65 2.65 0 01-2.22 1.2zm1.16-34.34a1.65 1.65 0 00-1.38.75L29.75 28.45a1.65 1.65 0 00.48 2.28l12.93 8.43a1.65 1.65 0 002.28-.48l14.09-21.62a1.65 1.65 0 00-.53-2.27L46.12 6.36a1.63 1.63 0 00-.9-.27zm14.73 11.25z" transform="translate(-3.67 -4.68)" fill="#123456"/><path d="M52.29 9.78l-3.38-2.2a1.9 1.9 0 00-2.65.42L31.83 30.18a1.9 1.9 0 00.65 2.61L35.86 35" transform="translate(-3.67 -4.68)" fill="#269dd8"/><path d="M35.86 35.5a.5.5 0 01-.27-.08l-3.39-2.21a2.52 2.52 0 01-1.08-1.51 2.25 2.25 0 01.29-1.79L45.84 7.76a2.25 2.25 0 011.52-1 2.53 2.53 0 011.82.38l3.39 2.21a.5.5 0 01-.55.84L48.63 8a1.53 1.53 0 00-1.1-.24 1.26 1.26 0 00-.86.55L32.24 30.46a1.26 1.26 0 00-.16 1 1.53 1.53 0 00.66.91l3.39 2.21a.5.5 0 01-.27.92z" transform="translate(-3.67 -4.68)" fill="#123456"/><path d="M43.59 6.3L29.16 28.45a1.9 1.9 0 00.65 2.61l3.09 2L49.32 7.85l-3.09-2a1.9 1.9 0 00-2.64.45z" transform="translate(-3.67 -4.68)" fill="#92d0ee"/><path d="M32.89 33.56a.5.5 0 01-.27-.08l-3.09-2A2.52 2.52 0 0128.45 30a2.25 2.25 0 01.29-1.79L43.17 6a2.25 2.25 0 011.53-1 2.52 2.52 0 011.82.38l3.09 2a.5.5 0 01.15.69L33.31 33.34a.5.5 0 01-.42.22zM45.12 6h-.25a1.26 1.26 0 00-.85.55L29.58 28.72a1.26 1.26 0 00-.16 1 1.53 1.53 0 00.66.91l2.67 1.74L48.63 8 46 6.26a1.55 1.55 0 00-.88-.26zm-1.52.3z" transform="translate(-3.67 -4.68)" fill="#123456"/><path d="M44.05 40.42A2.65 2.65 0 0142.6 40l-12.91-8.42a2.66 2.66 0 01-.78-3.68L43 6.3a2.66 2.66 0 013.68-.78l12.91 8.42a2.66 2.66 0 01.78 3.68l-14.09 21.6a2.66 2.66 0 01-2.23 1.2zm1.18-34.33a1.7 1.7 0 00-.35 0 1.65 1.65 0 00-1 .72L29.76 28.44a1.66 1.66 0 00.48 2.3l12.91 8.42a1.66 1.66 0 002.29-.48l14.08-21.61a1.66 1.66 0 00-.48-2.3L46.13 6.36a1.65 1.65 0 00-.9-.27zm14.71 11.26z" transform="translate(-3.67 -4.68)" fill="#102c4e"/><path d="M43.58 8.87a1.41 1.41 0 00.25 1.78l.52.34a1.41 1.41 0 001.72-.49 1.49 1.49 0 00-2.49-1.63z" transform="translate(-3.67 -4.68)" fill="#269dd8"/><path d="M42.3 10.86a1.41 1.41 0 00.25 1.78l.52.34a1.41 1.41 0 001.72-.49 1.49 1.49 0 00-2.49-1.63z" transform="translate(-3.67 -4.68)" fill="#269dd8"/><path d="M43.32 36.18a.5.5 0 01-.42-.77l8.36-12.78a.5.5 0 01.84.55L43.73 36a.5.5 0 01-.41.18z" transform="translate(-3.67 -4.68)" fill="#d8eff7"/><path d="M40.91 34.1" transform="translate(-3.67 -4.68)" fill="none" stroke="#d8eff7" stroke-linecap="round" stroke-linejoin="round"/><rect x="52.7" y="15.62" width="4.57" height="3.39" rx="1.7" ry="1.7" transform="rotate(-56.9 48.838 18.368)" fill="#269dd8"/><rect x="5.36" y="12.89" width="30.09" height="19.73" rx="1.07" ry="1.07" transform="rotate(-123.1 17.3 21.413)" fill="#92d0ee"/><path d="M20.67 40.84a1.57 1.57 0 01-1.32-.71L4.09 16.71a1.57 1.57 0 01.46-2.18l14.73-9.6a1.57 1.57 0 012.18.46l15.26 23.42a1.57 1.57 0 01-.46 2.19l-14.73 9.6a1.56 1.56 0 01-.86.24zm-.53-35.16a.57.57 0 00-.31.09L5.1 15.37a.57.57 0 00-.17.79l15.26 23.42a.57.57 0 00.79.17l14.73-9.6a.57.57 0 00.17-.79L20.62 5.94a.57.57 0 00-.36-.25z" transform="translate(-3.67 -4.68)" fill="#123456"/><path d="M10.42 20.4a.5.5 0 01-.42-.23l-2.21-3.38a.5.5 0 01.84-.55l2.21 3.39a.5.5 0 01-.42.77zM21.75 12.45a.5.5 0 01-.42-.23l-2.21-3.38a.5.5 0 11.88-.55l2.21 3.39a.5.5 0 01-.42.77z" transform="translate(-3.67 -4.68)" fill="#123456"/><path d="M24.13 34.1" transform="translate(-3.67 -4.68)" fill="none" stroke="#d8eff7" stroke-linecap="round" stroke-linejoin="round"/><circle cx="15.96" cy="16.88" r="4.29" fill="#269dd8"/><path d="M19.62 26.35a4.79 4.79 0 114.79-4.79 4.79 4.79 0 01-4.79 4.79zm0-8.58a3.79 3.79 0 103.79 3.79 3.79 3.79 0 00-3.79-3.79z" transform="translate(-3.67 -4.68)" fill="#123456"/><path d="M24.42 5.44l15.19.09A2.5 2.5 0 0141.91 7a2.09 2.09 0 01.18.87l-.15 26.84A2.4 2.4 0 0139.43 37l-15.19-.09a2.4 2.4 0 01-2.48-2.31l.15-26.84a2.4 2.4 0 012.51-2.32z" transform="translate(-3.67 -4.68)" fill="#d8eff7"/><path d="M25.06 37.4a.51.51 0 01-.51-.5.49.49 0 01.49-.5.5.5 0 010 1zM22.29 36.51a.5.5 0 01-.38-.18 2.69 2.69 0 01-.65-1.76v-1.43a.5.5 0 01.5-.5.5.5 0 01.5.5v1.44a1.7 1.7 0 00.41 1.11.5.5 0 01-.38.82zM21.78 30.64a.5.5 0 01-.5-.5v-3a.5.5 0 01.5-.5.5.5 0 01.5.5v3a.5.5 0 01-.5.5zM21.81 24.64a.5.5 0 01-.5-.5v-3a.53.53 0 01.5-.5.5.5 0 01.5.5v3a.5.5 0 01-.5.5zM21.85 18.64a.5.5 0 01-.5-.5v-3a.5.5 0 01.5-.5.5.5 0 01.5.5v3a.5.5 0 01-.5.5zM21.88 12.64a.5.5 0 01-.5-.5v-3a.5.5 0 01.5-.5.5.5 0 01.5.5v3a.5.5 0 01-.5.5zM22.47 6.78a.5.5 0 01-.37-.83 3.09 3.09 0 012.32-1h.82a.5.5 0 010 1h-.82a2.09 2.09 0 00-1.57.67.5.5 0 01-.38.16zM38.09 37.47h-3a.5.5 0 010-1h3a.5.5 0 010 1zM41 37a.5.5 0 01-.29-.9 1.73 1.73 0 00.74-1.39v-.9c0-.28.23-.55.5-.5a.5.5 0 01.5.5v.9a2.72 2.72 0 01-1.15 2.19.5.5 0 01-.3.1zM42 31.29a.5.5 0 01-.5-.5v-3a.5.5 0 01.5-.5.5.5 0 01.5.5v3a.5.5 0 01-.5.5zM42 25.3a.5.5 0 01-.5-.5v-3a.5.5 0 01.5-.5.5.5 0 01.5.5v3a.5.5 0 01-.5.5zM42 19.3a.5.5 0 01-.5-.5v-3a.5.5 0 01.5-.5.5.5 0 01.5.5v3a.5.5 0 01-.5.5zM42.06 13.3a.5.5 0 01-.5-.5v-3a.5.5 0 01.5-.5.5.5 0 01.5.5v3a.5.5 0 01-.5.5zM41.84 7.34a.5.5 0 01-.45-.27A2 2 0 0039.6 6h-.28a.5.5 0 01-.5-.5.52.52 0 01.5-.5h.28a3 3 0 012.68 1.58.5.5 0 01-.45.73zM36.33 6h-3a.5.5 0 010-1h3a.5.5 0 010 1z" transform="translate(-3.67 -4.68)" fill="#123456"/><rect x="12.72" y="18.52" width="31.9" height="5.19" rx="1.05" ry="1.05" transform="rotate(-89.68 24.491 20.625)" fill="#123456"/><path d="M53.32 32.05v23.5a4 4 0 01-4 4h-36.1a4 4 0 01-4-4V29.73a1.66 1.66 0 011.66-1.66h38.44a4 4 0 014 3.98z" transform="translate(-3.67 -4.68)" fill="#92d0ee"/><path d="M13.22 60.06a4.5 4.5 0 01-4.5-4.5V29.73a2.16 2.16 0 012.16-2.16h38.44a4.5 4.5 0 014.5 4.5v23.5a4.5 4.5 0 01-4.5 4.5h-36.1zm36.1-31.51H10.88a1.16 1.16 0 00-1.16 1.16v25.86a3.5 3.5 0 003.5 3.5h36.11a3.5 3.5 0 003.5-3.5V32.05a3.5 3.5 0 00-3.5-3.5zm4.5 3.5z" transform="translate(-3.67 -4.68)" fill="#123456"/><path fill="#d8eff7" d="M11.62 23.19h3.17v31.82h-3.17zM39.41 23.18h3.17V55h-3.17z"/><path d="M13.22 60.06a4.5 4.5 0 01-4.5-4.5V29.73a2.16 2.16 0 012.16-2.16h38.44a4.5 4.5 0 014.5 4.5v23.5a4.5 4.5 0 01-4.5 4.5h-36.1zm36.1-31.51H10.88a1.16 1.16 0 00-1.16 1.16v25.86a3.5 3.5 0 003.5 3.5h36.11a3.5 3.5 0 003.5-3.5V32.05a3.5 3.5 0 00-3.5-3.5zm4.5 3.5z" transform="translate(-3.67 -4.68)" fill="#123456"/><rect x="45.62" y="39.81" width="11.5" height="7.91" rx="1.55" ry="1.55" transform="rotate(178.95 49.56 41.413)" fill="#269dd8"/><path d="M47.22 48.3a2.05 2.05 0 01-2-2l-.09-4.8a2.05 2.05 0 012-2.09l8.39-.15a2.11 2.11 0 011.46.57 2 2 0 01.63 1.44l.09 4.8a2.05 2.05 0 01-2 2.09l-8.39.15zm-.11-7.91a1.05 1.05 0 00-1 1.07l.09 4.8a1 1 0 00.32.74 1.08 1.08 0 00.75.29l8.39-.15a1.05 1.05 0 001-1.07l-.09-4.8a1 1 0 00-.32-.74 1.07 1.07 0 00-.75-.29l-8.39.15zm0-.5z" transform="translate(-3.67 -4.68)" fill="#123456"/><circle cx="50.12" cy="43.73" r="1.82" transform="rotate(-1.05 -206.852 241.489)" fill="#91cfee"/><path d="M26.15 40.45a.84.84 0 00.34-.08 1.68 1.68 0 01.79-.27 2.84 2.84 0 011.19.41.71.71 0 00.55-.06 1.83 1.83 0 00.32-1.3c-.18-1-.9-2.35-.47-3.37C29.62 34 32 33.33 32 33.33s-.09 1.43-.12 2.61v1.38c-.06.35 1 5.07 2.09 6a7.58 7.58 0 002.47 1.8s-.38-.12-.41-.07a.24.24 0 00.12.24A17 17 0 0033 44a40.12 40.12 0 01-4.11-1c-1.14-.52-1.06-1.55-2.42-2.09a22.43 22.43 0 00-3.08-.91l2.76.43" transform="translate(-3.67 -4.68)" fill="#113f68" fill-rule="evenodd"/><path d="M33.5 41.8a16 16 0 012-3.39c1.22-1.66 2.65-3.25 2.65-3.25a18.33 18.33 0 00-3.27.78 17.36 17.36 0 00-1.82.77 24.67 24.67 0 00.4 5.35 1.4 1.4 0 010-.26" transform="translate(-3.67 -4.68)" fill="#133b62" fill-rule="evenodd"/><path d="M33.08 36.7c-.69.33-1.18.62-1.18.62-.06.35 1 5.07 2.09 6a2.08 2.08 0 01-.52-1.31 24.67 24.67 0 01-.4-5.35" transform="translate(-3.67 -4.68)" fill="#10375b" fill-rule="evenodd"/><path d="M26 48.86h-1.51L24.41 46v-.05H26a1.36 1.36 0 011.49 1.44A1.38 1.38 0 0126 48.86zm.06-3.52h-2.34v6.78h.67v-2.66h1.68a2.06 2.06 0 100-4.12zM32.19 49.83a1.69 1.69 0 01-1.47 1.81 1 1 0 01-1.09-.91c0-1.07 1.52-1.11 2.28-1.11h.28v.21zM31 47.12a2.79 2.79 0 00-1.72.56l.31.5A2.36 2.36 0 0131 47.7c.69 0 1.21.31 1.21 1.25v.13h-.27c-.84 0-3 .06-3 1.7a1.5 1.5 0 001.66 1.43 1.75 1.75 0 001.61-1.06 3.82 3.82 0 000 .4v.53h.63v-3.11A1.65 1.65 0 0031 47.12zM37.54 47.19l-1.37 3.55a4.53 4.53 0 00-.16.51s-.08-.27-.18-.51l-1.45-3.53h-.72L35.69 52l-.29.69c-.19.45-.49.8-.91.8a1 1 0 01-.58-.22l-.25.52a1.44 1.44 0 00.85.28 1.5 1.5 0 001.39-1l2.35-5.88h-.71" transform="translate(-3.67 -4.68)" fill="#113f68" fill-rule="evenodd"/><path d="M12.68 57.49a8.21 8.21 0 01-8.06-6.67 8.21 8.21 0 1016.13 0 8.21 8.21 0 01-8.07 6.67z" transform="translate(-3.67 -4.68)" fill="#faa919"/><path d="M12.68 57.49a8.21 8.21 0 008.06-6.67 8.21 8.21 0 00-16.13 0 8.21 8.21 0 008.07 6.67z" transform="translate(-3.67 -4.68)" fill="#ffcc07"/><path d="M12.65 61.31a9 9 0 119-9 9 9 0 01-9 9zm0-17a8 8 0 108 8 8 8 0 00-8-7.95z" transform="translate(-3.67 -4.68)" fill="#123456"/><path d="M17.29 48.76a1.1 1.1 0 00-1.55.18l-4.25 5.4-2-2A1.1 1.1 0 008 53.86l2.83 2.94a1.11 1.11 0 00.79.34h.06a1.1 1.1 0 00.81-.42l5-6.4a1.11 1.11 0 00-.2-1.56z" transform="translate(-3.67 -4.68)" fill="#289ed8"/></svg>