<svg id="Layer_1" data-name="Layer 1" xmlns="http://www.w3.org/2000/svg" viewBox="0 0 52.93 57"><path d="M58.47 19.18v39.1a2.09 2.09 0 01-2.14 2.14H13.4a2.09 2.09 0 01-2.14-2.14v-39.1A2.09 2.09 0 0113.4 17h42.93a2.09 2.09 0 012.14 2.18z" transform="translate(-6.03 -4)" fill="#92d0ee"/><rect x="9.65" y="43.76" width="38.37" height="9.28" rx="2.83" ry="2.83" fill="#289ed8"/><path fill="#d9f0f9" d="M44.44 41.04H13.22"/><path d="M50.47 45.54H19.25a.5.5 0 010-1h31.22a.5.5 0 010 1z" transform="translate(-6.03 -4)" fill="#123456"/><path d="M58.47 19.18v2.9H11.26v-2.9A2.09 2.09 0 0113.4 17h42.93a2.09 2.09 0 012.14 2.18z" transform="translate(-6.03 -4)" fill="#289ed8"/><path d="M58.47 22.58H11.26a.5.5 0 01-.5-.5v-2.9a2.58 2.58 0 012.64-2.64h42.93A2.58 2.58 0 0159 19.18v2.9a.5.5 0 01-.53.5zm-46.7-1H58v-2.4a1.59 1.59 0 00-1.64-1.64H13.4a1.58 1.58 0 00-1.64 1.64z" transform="translate(-6.03 -4)" fill="#123456"/><path d="M56.33 60.92H13.4a2.58 2.58 0 01-2.64-2.64v-39.1a2.58 2.58 0 012.64-2.64h42.93A2.58 2.58 0 0159 19.18v39.1a2.58 2.58 0 01-2.67 2.64zM13.4 17.54a1.58 1.58 0 00-1.64 1.64v39.1a1.58 1.58 0 001.64 1.64h42.93A1.59 1.59 0 0058 58.28v-39.1a1.59 1.59 0 00-1.64-1.64z" transform="translate(-6.03 -4)" fill="#123456"/><path d="M46.18 4.5H23.55a1.21 1.21 0 00-1.21 1.21v13.8h25V5.71a1.21 1.21 0 00-1.16-1.21z" transform="translate(-6.03 -4)" fill="#92cfeb"/><path fill="#d8eff7" d="M16.31 15.51V41.04h25.04V15.51H16.31z"/><path d="M28.92 36.34a.5.5 0 01-.5-.5V24.33a.5.5 0 011 0v11.51a.5.5 0 01-.5.5zM34.86 36.34a.5.5 0 01-.5-.5V24.33a.5.5 0 011 0v11.51a.5.5 0 01-.5.5zM40.9 36.34a.5.5 0 01-.5-.5V24.33a.5.5 0 011 0v11.51a.5.5 0 01-.5.5z" transform="translate(-6.03 -4)" fill="#92d0ee"/><path d="M47.39 19.88h-1a.38.38 0 010-.75h1a.37.37 0 010 .75zM44.34 19.88h-2a.38.38 0 010-.75h2a.37.37 0 010 .75zM40.34 19.88h-2a.38.38 0 010-.75h2a.37.37 0 010 .75zM36.34 19.88h-2a.38.38 0 010-.75h2a.37.37 0 010 .75zM32.34 19.88h-2a.38.38 0 010-.75h2a.37.37 0 010 .75zM28.34 19.88h-2a.38.38 0 010-.75h2a.37.37 0 010 .75zM24.34 19.88h-2a.38.38 0 010-.75h2a.37.37 0 010 .75z" transform="translate(-6.03 -4)" fill="#289ed8"/><path d="M47.39 45.54h-25a.5.5 0 01-.5-.5V5.71A1.71 1.71 0 0123.55 4h22.63a1.71 1.71 0 011.71 1.71V45a.5.5 0 01-.5.54zm-24.55-1h24V5.71a.71.71 0 00-.66-.71H23.55a.71.71 0 00-.71.71z" transform="translate(-6.03 -4)" fill="#123456"/><rect x="24.44" y="3.52" width="8.79" height="8.79" rx="4.4" ry="4.4" fill="#289ed8"/><path d="M40.52 60.5H29.21a2.35 2.35 0 01-2.29-2.29v-24.9A2.35 2.35 0 0129.21 31h11.3a2.35 2.35 0 012.29 2.29v24.9a2.35 2.35 0 01-2.28 2.31z" transform="translate(-6.03 -4)" fill="#92d0ee"/><path fill="#d9f0f9" d="M20.89 31.6h15.89v21.39H20.89z"/><path d="M42.81 57.49H26.92a.5.5 0 01-.5-.5V35.6a.5.5 0 01.5-.5h15.89a.5.5 0 01.5.5V57a.5.5 0 01-.5.49zm-15.39-1h14.89V36.1H27.42z" transform="translate(-6.03 -4)" fill="#123456"/><path d="M40.52 61H29.21a2.86 2.86 0 01-2.79-2.79v-24.9a2.86 2.86 0 012.79-2.79h11.3a2.86 2.86 0 012.79 2.79v24.9A2.86 2.86 0 0140.52 61zM29.21 31.52a1.86 1.86 0 00-1.79 1.79v24.9A1.86 1.86 0 0029.21 60h11.3a1.86 1.86 0 001.79-1.79v-24.9a1.86 1.86 0 00-1.79-1.79z" transform="translate(-6.03 -4)" fill="#123456"/><rect x="23.17" y="45.31" width="11.32" height="3.6" rx=".84" ry=".84" fill="#289ed8"/><circle cx="8.14" cy="15.6" r=".68" fill="#d9f0f9"/><circle cx="10.46" cy="15.6" r=".68" fill="#d9f0f9"/><circle cx="12.91" cy="15.6" r=".68" fill="#d9f0f9"/><path d="M22.59 56.85l12.2-7-12.45-7.27v4.67h-8.16a1.11 1.11 0 000 2.23h.57a.81.81 0 110 1.62h-2.83a1 1 0 000 2.07h2.83a.8.8 0 01.76.55h7.08z" transform="translate(-6.03 -4)" fill="#ffcc05"/><path d="M37 51.31l-2.25-1.48-12.2 7v-3.12h-7.04a.79.79 0 01.05.26.81.81 0 01-.81.81H7.6a1.06 1.06 0 000 2.13h14.74V60z" transform="translate(-6.03 -4)" fill="#faa919"/><path d="M22.34 60.55a.5.5 0 01-.25-.07.5.5 0 01-.25-.43v-2.64H7.6a1.56 1.56 0 010-3.13h7.15a.31.31 0 100-.62h-2.83a1.53 1.53 0 110-3.07h2.83a.31.31 0 100-.62h-.57a1.61 1.61 0 010-3.23h7.66v-4.16a.5.5 0 01.76-.43l14.7 8.74a.5.5 0 010 .86l-14.7 8.73a.5.5 0 01-.26.07zM7.6 55.28a.56.56 0 000 1.13h14.74a.5.5 0 01.5.5v2.26l13.22-7.86-13.22-7.86v3.79a.5.5 0 01-.5.5h-8.16a.61.61 0 000 1.23h.57a1.31 1.31 0 110 2.62h-2.83a.53.53 0 100 1.07h2.83a1.31 1.31 0 110 2.62z" transform="translate(-6.03 -4)" fill="#123456"/><rect x="1.28" y="46.99" width="2.17" height="2.17" rx=".99" ry=".99" fill="#ffcc05"/><path d="M8.48 53.66h-.17a1.5 1.5 0 01-1.49-1.5V52a1.5 1.5 0 011.49-1.5h.18A1.5 1.5 0 0110 52v.18a1.5 1.5 0 01-1.52 1.48zm-.18-2.17a.5.5 0 00-.49.5v.18a.5.5 0 00.49.5h.18a.5.5 0 00.49-.5V52a.5.5 0 00-.49-.5z" transform="translate(-6.03 -4)" fill="#123456"/><path d="M22.34 19.51" transform="translate(-6.03 -4)" fill="none" stroke="#289ed8" stroke-linecap="round" stroke-linejoin="round" stroke-dasharray="2"/><path d="M38.53 39.73a.77.77 0 00-1.08.13l-3 3.78-1.35-1.42a.77.77 0 00-1.1 1.07l2 2.05a.78.78 0 00.56.24.77.77 0 00.57-.29l3.52-4.47a.77.77 0 00-.12-1.09z" transform="translate(-6.03 -4)" fill="#289ed8"/></svg>