<svg id="Layer_1" data-name="Layer 1" xmlns="http://www.w3.org/2000/svg" viewBox="0 0 55.74 55.24"><path d="M56.52 59.31H33.74a3.11 3.11 0 01-3.1-3.1V8.48a3.11 3.11 0 013.1-3.1h22.78a3.11 3.11 0 013.1 3.1v47.73a3.11 3.11 0 01-3.1 3.1z" transform="translate(-4.38 -4.88)" fill="#289ed8"/><path d="M56.52 59.81H33.74a3.6 3.6 0 01-3.6-3.6V8.48a3.6 3.6 0 013.6-3.6h22.78a3.6 3.6 0 013.6 3.6v47.73a3.6 3.6 0 01-3.6 3.6zM33.74 5.88a2.6 2.6 0 00-2.6 2.6v47.73a2.6 2.6 0 002.6 2.6h22.78a2.6 2.6 0 002.6-2.6V8.48a2.6 2.6 0 00-2.6-2.6z" transform="translate(-4.38 -4.88)" fill="#123456"/><path d="M53.42 59.31H30.64a3.11 3.11 0 01-3.1-3.1V8.48a3.11 3.11 0 013.1-3.1h22.78a3.11 3.11 0 013.1 3.1v47.73a3 3 0 01-3.1 3.1z" transform="translate(-4.38 -4.88)" fill="#92d0ee"/><path fill="#d9f0f9" d="M23.16 9.02h28.98v39.21H23.16z"/><path d="M56.52 53.61h-29a.5.5 0 01-.5-.5V13.9a.5.5 0 01.5-.5h29a.5.5 0 01.5.5v39.21a.5.5 0 01-.5.5zm-28.52-1h28V14.4H28z" transform="translate(-4.38 -4.88)" fill="#123456"/><path d="M56.52 52.73h-7.9a1.41 1.41 0 01-1.09-.46l-.15-.16-.16-.11c0-.16-.15-.16-.15-.31a2.14 2.14 0 01-.31-.93v-1.13a1.64 1.64 0 01.31-.93c0-.15.15-.15.15-.31l.16-.15.15-.16a1.56 1.56 0 01.64-.38 1.52 1.52 0 01.44-.08h7.9z" transform="translate(-4.38 -4.88)" fill="#ffcc05"/><path d="M56.52 53.23h-7.9a1.9 1.9 0 01-1.44-.61l-.3-.3a.5.5 0 01-.14-.23.68.68 0 01-.15-.29 2.39 2.39 0 01-.33-1.08v-1.09a2.27 2.27 0 01.35-1.15.72.72 0 01.13-.23.49.49 0 01.14-.23l.29-.29a2.07 2.07 0 01.86-.52h.05a1.94 1.94 0 01.54-.09h7.9a.5.5 0 01.5.5v5.08a.5.5 0 01-.5.53zm-8.85-1.53l.23.23a.9.9 0 00.73.3H56v-4.09h-7.4a1 1 0 00-.29.06 1.06 1.06 0 00-.4.24l-.21.22a.72.72 0 01-.12.2.51.51 0 01-.12.2 1.3 1.3 0 00-.16.58v1.09a1.77 1.77 0 00.25.7v.08a.73.73 0 01.12.19z" transform="translate(-4.38 -4.88)" fill="#123456"/><path fill="none" d="M23.16 9.02h28.98v39.21H23.16z"/><path d="M48.62 47.77a1.2 1.2 0 01-.44-.07 1.36 1.36 0 01-.64-.39l-.15-.16-.17-.15c0-.16-.15-.16-.15-.31a2.14 2.14 0 01-.31-.93v-1.09a1.64 1.64 0 01.31-.93c0-.15.15-.15.15-.31l.16-.15.15-.16a1.68 1.68 0 011.09-.46h7.9v5.11z" transform="translate(-4.38 -4.88)" fill="#ffcc05"/><path d="M56.52 48.27h-7.9a1.75 1.75 0 01-.56-.08 1.84 1.84 0 01-.87-.52l-.3-.3a.5.5 0 01-.14-.23.68.68 0 01-.15-.29 2.39 2.39 0 01-.33-1.08v-1.1a2.27 2.27 0 01.35-1.15.72.72 0 01.13-.23.49.49 0 01.14-.23l.29-.29a2.18 2.18 0 011.45-.62h7.9a.5.5 0 01.5.5v5.11a.5.5 0 01-.51.51zm-8.25-1.06h.09a.72.72 0 00.26 0H56v-4.05h-7.4a1.18 1.18 0 00-.74.31l-.22.22a.72.72 0 01-.12.2.51.51 0 01-.12.2 1.3 1.3 0 00-.16.58v1.09a1.77 1.77 0 00.25.7v.08a.73.73 0 01.12.19l.23.23a.86.86 0 00.43.25z" transform="translate(-4.38 -4.88)" fill="#123456"/><path fill="none" d="M23.16 9.02h28.98v39.21H23.16z"/><path d="M56.52 37.51v5.15h-7.9a1.41 1.41 0 01-1.09-.47l-.15-.19-.16-.16c0-.15-.15-.15-.15-.31a2.14 2.14 0 01-.31-.93v-1.04a1.61 1.61 0 01.31-.93c0-.16.15-.16.15-.31l.16-.16.15-.15a1.56 1.56 0 01.64-.38 1.33 1.33 0 01.45-.09z" transform="translate(-4.38 -4.88)" fill="#ffcc05"/><path d="M56.52 43.16h-7.9a1.91 1.91 0 01-1.44-.62l-.31-.31a.51.51 0 01-.12-.2.71.71 0 01-.16-.31 2.4 2.4 0 01-.33-1.08v-1.08a2.23 2.23 0 01.35-1.15.69.69 0 01.14-.24.49.49 0 01.12-.2l.31-.31a2.08 2.08 0 01.85-.5 1.77 1.77 0 01.6-.11h7.9a.44.44 0 01.35.15.5.5 0 01.15.35v5.15a.5.5 0 01-.51.46zm-8.85-1.54l.21.21a.93.93 0 00.74.32H56V38h-7.4a.85.85 0 00-.28.06 1.12 1.12 0 00-.46.26l-.21.21a.71.71 0 01-.12.19.49.49 0 01-.14.23 1.41 1.41 0 00-.15.57v1.08a1.77 1.77 0 00.25.7v.09a.7.7 0 01.18.23z" transform="translate(-4.38 -4.88)" fill="#123456"/><path fill="none" d="M23.16 9.02h28.98v39.21H23.16z"/><path d="M56.52 37.7h-7.9a1.25 1.25 0 01-.45-.07 1.38 1.38 0 01-.64-.4l-.15-.15-.16-.16c0-.15-.15-.15-.15-.31a2.14 2.14 0 01-.31-.93V34.6a1.61 1.61 0 01.31-.93c0-.16.15-.16.15-.31l.16-.16.15-.15a1.69 1.69 0 011.09-.47h7.9z" transform="translate(-4.38 -4.88)" fill="#ffcc05"/><path d="M56.52 38.2h-7.9a1.74 1.74 0 01-.63-.1 1.82 1.82 0 01-.81-.51l-.31-.31a.5.5 0 01-.12-.21.7.7 0 01-.16-.31 2.4 2.4 0 01-.33-1.08V34.6a2.23 2.23 0 01.35-1.15.69.69 0 01.14-.24.49.49 0 01.12-.2l.31-.31a2.18 2.18 0 011.44-.62h7.9a.5.5 0 01.5.5v5.12a.5.5 0 01-.5.5zm-8.85-1.54l.21.21a1 1 0 00.74.32H56v-4.11h-7.4a1.21 1.21 0 00-.74.32l-.21.21a.71.71 0 01-.12.19.49.49 0 01-.14.23 1.41 1.41 0 00-.15.57v1.08a1.77 1.77 0 00.25.7v.09a.73.73 0 01.18.19z" transform="translate(-4.38 -4.88)" fill="#123456"/><path fill="none" d="M23.16 9.02h28.98v39.21H23.16z"/><path d="M46.45 49.63v1.08a2.05 2.05 0 01-2 2H33.74a1.41 1.41 0 01-1.08-.46l-.15-.15-.17-.1c0-.15-.15-.15-.15-.31a2.2 2.2 0 01-.31-.93v-1.13a1.66 1.66 0 01.31-.93c0-.15.15-.15.15-.31l.15-.15.15-.15a1.67 1.67 0 011.08-.46h10.71a2.05 2.05 0 012.02 2z" transform="translate(-4.38 -4.88)" fill="#ffcc05"/><path d="M44.43 53.23H33.74a1.9 1.9 0 01-1.44-.61l-.3-.31a.5.5 0 01-.12-.2.69.69 0 01-.16-.31 2.45 2.45 0 01-.33-1.08v-1.09a2.3 2.3 0 01.34-1.15.7.7 0 01.14-.25A.5.5 0 0132 48l.31-.31a2.18 2.18 0 011.44-.61h10.68a2.55 2.55 0 012.51 2.51v1.08a2.55 2.55 0 01-2.51 2.56zM32.8 51.7l.21.21a.91.91 0 00.73.32h10.69a1.55 1.55 0 001.51-1.51v-1.09a1.55 1.55 0 00-1.51-1.51H33.74a1.18 1.18 0 00-.73.32l-.21.21a.71.71 0 01-.13.2.5.5 0 01-.12.2 1.37 1.37 0 00-.16.58v1.08a1.87 1.87 0 00.26.7v.08a.71.71 0 01.15.21z" transform="translate(-4.38 -4.88)" fill="#123456"/><path fill="none" d="M23.16 9.02h28.98v39.21H23.16z"/><path d="M46.45 44.67v1.08a2.05 2.05 0 01-2 2H33.74a1.41 1.41 0 01-1.08-.46l-.15-.15-.17-.14c0-.15-.15-.15-.15-.31a2.2 2.2 0 01-.31-.93v-1.09a1.66 1.66 0 01.31-.93c0-.15.15-.15.15-.31l.15-.15.15-.15a1.67 1.67 0 011.08-.46h10.71a2.05 2.05 0 012.02 2z" transform="translate(-4.38 -4.88)" fill="#ffcc05"/><path d="M44.43 48.27H33.74a1.91 1.91 0 01-1.44-.61l-.3-.31a.51.51 0 01-.12-.2.69.69 0 01-.16-.31 2.45 2.45 0 01-.33-1.08v-1.09a2.3 2.3 0 01.34-1.15.7.7 0 01.14-.25.5.5 0 01.12-.2l.31-.31a2.18 2.18 0 011.44-.61h10.69a2.55 2.55 0 012.51 2.51v1.08a2.55 2.55 0 01-2.51 2.53zM32.8 46.74l.2.26a.92.92 0 00.73.32h10.7a1.55 1.55 0 001.51-1.51v-1.14a1.55 1.55 0 00-1.51-1.51H33.74a1.18 1.18 0 00-.73.32l-.21.21a.73.73 0 01-.13.21.5.5 0 01-.12.2 1.36 1.36 0 00-.16.58v1.08a1.92 1.92 0 00.26.71v.07a.73.73 0 01.15.2z" transform="translate(-4.38 -4.88)" fill="#123456"/><path fill="none" d="M23.16 9.02h28.98v39.21H23.16z"/><path d="M56.52 53.61h-29a.5.5 0 01-.5-.5V13.9a.5.5 0 01.5-.5h29a.5.5 0 01.5.5v39.21a.5.5 0 01-.5.5zm-28.52-1h28V14.4H28z" transform="translate(-4.38 -4.88)" fill="#123456"/><path d="M53.42 59.81H30.64a3.6 3.6 0 01-3.6-3.6V8.48a3.6 3.6 0 013.6-3.6h22.78A3.6 3.6 0 0157 8.48v47.73a3.52 3.52 0 01-3.58 3.6zM30.64 5.88A2.6 2.6 0 0028 8.48v47.73a2.6 2.6 0 002.6 2.6h22.82a2.51 2.51 0 002.6-2.6V8.48a2.6 2.6 0 00-2.6-2.6z" transform="translate(-4.38 -4.88)" fill="#123456"/><path d="M47.22 10.68H37a.5.5 0 010-1h10.22a.5.5 0 010 1z" transform="translate(-4.38 -4.88)" fill="#123456"/><circle cx="47.65" cy="5.3" r="1.08" fill="#123456"/><path d="M38.23 45.83a14.25 14.25 0 01-1.55 6.35 5.44 5.44 0 01-.77 1.24A10.86 10.86 0 0134.67 55l-1.24 1.24a12.81 12.81 0 01-8.52 3.1h-5.74V32.19h5.73a13.65 13.65 0 019 3.56A9.35 9.35 0 0135.13 37a16.23 16.23 0 011.24 1.7 23.41 23.41 0 011.39 2.79c.15.31.15.62.31.93.15.46.15.77.31 1.24a5.16 5.16 0 00-.15 2.17z" transform="translate(-4.38 -4.88)" fill="#faa919"/><path d="M35 37.3H24.91v-1.24h9A7.76 7.76 0 0035 37.3zM36.53 52.49a5.44 5.44 0 01-.77 1.24h-8.84v-1.24zM38.08 44h-8.21v-1.27h7.9c.15.27.15.77.31 1.27zM34.67 55.28l-1.24 1.24h-9.3v-1.24zM37.46 41.8H27.7V39h8.52a11.63 11.63 0 011.24 2.8z" transform="translate(-4.38 -4.88)" fill="#ffcc05"/><path d="M24.75 60.12H19a.5.5 0 01-.5-.5v-27a.5.5 0 01.5-.5h5.73a13.79 13.79 0 019.93 4.16 13.54 13.54 0 013.9 9.83 13.92 13.92 0 01-13.81 14.01zm-5.23-1h5.23a12.92 12.92 0 0012.83-13A12.56 12.56 0 0034 37a12.8 12.8 0 00-9.21-3.86h-5.27z" transform="translate(-4.38 -4.88)" fill="#123456"/><circle cx="14.64" cy="41.26" r="13.48" fill="#ffcc05"/><path d="M19 60.12a14 14 0 1114-14 14 14 0 01-14 14zm0-27a13 13 0 1013 13 13 13 0 00-13-12.97z" transform="translate(-4.38 -4.88)" fill="#123456"/><path d="M19.95 52.34h-1.86a5.23 5.23 0 01-5.27-5.27v-1.86a1.39 1.39 0 012.79 0v1.86a2.72 2.72 0 002.63 2.63h1.86a2.72 2.72 0 002.63-2.63v-1.86a2.72 2.72 0 00-2.63-2.63h-1.86a1.39 1.39 0 010-2.79h1.86a5.23 5.23 0 015.27 5.27v1.86a5.49 5.49 0 01-5.42 5.42z" transform="translate(-4.38 -4.88)" fill="#123456"/><path d="M9.1 34.43a1 1 0 01-.6-.2l-3.72-2.79A1 1 0 116 29.84l3.7 2.79a1 1 0 01-.6 1.8zM13.44 31.33a1 1 0 01-.93-.63l-1.71-4.34a1 1 0 011.86-.73L14.37 30a1 1 0 01-.93 1.37zM18.4 30.09a1 1 0 01-1-1l-.16-4.65a1 1 0 012-.07l.16 4.65a1 1 0 01-1 1z" transform="translate(-4.38 -4.88)" fill="#ffcc05"/></svg>