<svg xmlns="http://www.w3.org/2000/svg" width="74" height="35" viewBox="0 0 74 35"><g fill="none" fill-rule="evenodd"><rect width="74" height="35" fill="#FFF" rx="17.5"/><path fill="#FFF" d="M25.49 26.633c-1.55.92-3.277 1.381-5.233 1.407-1.905-.026-3.657-.487-5.207-1.407-1.575-.948-2.82-2.201-3.708-3.762-.94-1.561-1.397-3.301-1.422-5.272.025-1.919.482-3.684 1.422-5.27a10.03 10.03 0 013.708-3.737c1.55-.921 3.302-1.408 5.207-1.433 1.93.025 3.683.512 5.232 1.433.758.443 1.44.964 2.045 1.559V8.413c0-.22.176-.397.394-.397h27.481c2.929-.003 5.458.96 7.531 2.894 2.054 1.904 3.103 4.286 3.124 7.077-.021 2.735-1.071 5.09-3.123 7.017-2.072 1.934-4.6 2.924-7.532 2.92H27.928a.395.395 0 01-.394-.396V25.05a10.841 10.841 0 01-2.045 1.582z"/><path fill="#871E33" d="M28.318 8.137H55.4c2.931-.004 5.463.955 7.538 2.88 2.056 1.895 3.105 4.265 3.126 7.042-.021 2.722-1.072 5.065-3.126 6.983-2.074 1.924-4.604 2.91-7.538 2.906H27.896a.393.393 0 01-.296-.134c-.336.25-.687.485-1.052.707-1.88 1.12-3.99 1.681-6.33 1.706-2.313-.05-4.422-.61-6.304-1.706-1.855-1.146-3.33-2.648-4.474-4.533-1.118-1.884-1.677-3.997-1.703-6.315.026-2.317.585-4.43 1.703-6.315 1.144-1.859 2.619-3.361 4.474-4.482 1.882-1.12 3.991-1.68 6.305-1.706 2.338.026 4.448.586 6.33 1.706.633.378 1.223.798 1.77 1.26zm.851.79c.714.725 1.34 1.537 1.879 2.43 1.118 1.886 1.677 4 1.703 6.316-.026 2.318-.61 4.431-1.703 6.315a12.93 12.93 0 01-2.633 3.17H55.4c2.76-.002 5.06-.901 7.001-2.693 1.914-1.801 2.846-3.89 2.875-6.406-.03-2.577-.963-4.689-2.873-6.462-1.941-1.793-4.24-2.667-7.003-2.67H29.17zm-3.714-.217c-1.55-.917-3.304-1.4-5.236-1.426-1.907.025-3.66.51-5.212 1.426a10.008 10.008 0 00-3.711 3.718c-.94 1.579-1.398 3.336-1.423 5.245.025 1.961.483 3.693 1.423 5.246.89 1.553 2.135 2.801 3.711 3.744 1.551.916 3.305 1.374 5.212 1.4 1.957-.026 3.685-.484 5.236-1.4a10.535 10.535 0 003.737-3.744c.915-1.553 1.373-3.31 1.398-5.246-.025-1.91-.483-3.666-1.398-5.245a10.263 10.263 0 00-3.737-3.718z"/><path fill="#871E33" d="M35.909 14h.862l.913 2.514.94-2.513h.836l-1.42 3.58h-.685L35.909 14zm9.918 3.555v-2.717h.786v2.717h-.786zm-.026-3.021v-.686h.812v.686H45.8zm-2.435.304h.761v.534c.076-.178.203-.33.33-.432.127-.127.304-.178.533-.152v.812h-.026c-.279 0-.482.076-.608.229-.153.152-.229.406-.229.736v.99h-.76v-2.717zm-2.156 2.793c-.177 0-.38-.05-.558-.127a1.061 1.061 0 01-.457-.28 1.264 1.264 0 01-.278-.43 1.5 1.5 0 01-.026-1.143c.076-.178.152-.33.28-.457.126-.127.253-.229.43-.305.178-.076.355-.101.558-.101.229 0 .406.05.584.127a.873.873 0 01.406.33c.101.127.177.279.253.457.05.177.077.38.077.558l-.026.102v.101h-1.877a.599.599 0 00.228.407.787.787 0 00.431.127.896.896 0 00.355-.077c.077-.025.178-.101.305-.203l.43.381a1.081 1.081 0 01-.456.38 1.331 1.331 0 01-.659.153zm.507-1.65a.822.822 0 00-.178-.431.514.514 0 00-.38-.153.535.535 0 00-.405.153.848.848 0 00-.203.43h1.166zm7.28 1.625c-.279 0-.533-.051-.811-.153-.254-.076-.482-.228-.71-.431l.481-.533c.152.127.305.228.482.304.178.077.355.127.558.127.178 0 .305-.025.38-.101a.267.267 0 00.127-.229v-.152l-.126-.102-.203-.101-.38-.128-.483-.126-.38-.203-.228-.305a1.087 1.087 0 01-.077-.431v-.026l.077-.431c.076-.127.152-.254.278-.33a.96.96 0 01.381-.229c.152-.05.33-.076.508-.076.253 0 .482.05.71.127.228.076.43.178.608.33l-.405.584-.482-.254a.989.989 0 00-.457-.101c-.152 0-.254.025-.33.101-.076.05-.127.127-.127.203v.025l.051.153.102.101.253.102.38.101.483.178c.127.05.253.127.355.203l.203.28c.05.126.076.253.076.406v.025c0 .178-.026.33-.102.457a.836.836 0 01-.253.355c-.127.076-.254.153-.432.203-.151.051-.33.077-.507.077zm2.283-.051v-2.717h.786v2.717h-.786zm-.025-3.021v-.686h.811v.686h-.811zm5.707.304h.761v.381l.152-.152.177-.152.203-.102.255-.025c.304 0 .532.101.684.279.178.177.254.406.254.736v1.752h-.786v-1.523c0-.178-.026-.305-.102-.407a.504.504 0 00-.355-.126.503.503 0 00-.355.126.647.647 0 00-.127.407v1.523h-.761v-2.717zm-2.511 3.53l-.634-.077a1.45 1.45 0 01-.584-.203l.28-.584.43.203.482.05c.254 0 .457-.05.584-.177.127-.127.178-.304.178-.558v-.127a1.46 1.46 0 01-.356.33c-.127.076-.304.101-.532.101-.153 0-.305-.025-.457-.076a1.118 1.118 0 01-.38-.253 1.436 1.436 0 01-.254-.381 1.367 1.367 0 01-.102-.559c0-.203.026-.38.102-.533a1.25 1.25 0 01.253-.406.997.997 0 01.406-.254l.432-.076c.228 0 .405.05.532.127.127.076.254.152.356.279v-.356h.76v2.108c0 .482-.101.837-.33 1.065a1.147 1.147 0 01-.481.28l-.685.076zm.076-1.676l.279-.05a.444.444 0 00.203-.128.552.552 0 00.127-.203.751.751 0 00.05-.254l-.05-.254a.555.555 0 00-.127-.203l-.203-.127-.28-.05-.253.05-.203.127a.393.393 0 00-.152.203l-.05.254c0 .203.076.356.202.457a.609.609 0 00.457.178zm-16.64 5.356c-.279 0-.532-.05-.812-.152-.253-.076-.481-.229-.71-.432l.482-.533c.153.127.304.229.482.305.178.076.355.127.558.127.178 0 .305-.026.38-.102a.267.267 0 00.127-.228v-.152l-.126-.102-.203-.101-.38-.128-.483-.127-.38-.202-.228-.305a1.093 1.093 0 01-.076-.432v-.025l.076-.432c.076-.127.152-.253.279-.33a.958.958 0 01.38-.228c.152-.051.33-.076.507-.076.254 0 .482.05.71.127.229.076.432.177.61.33l-.407.584-.481-.254a.99.99 0 00-.457-.102c-.152 0-.254.025-.33.102-.076.05-.127.126-.127.203v.025l.051.152.102.102.253.101.38.102.483.178c.126.05.253.127.355.203l.203.28c.05.126.076.253.076.405v.025c0 .178-.026.33-.102.458a.843.843 0 01-.253.355 1.685 1.685 0 01-.939.28zm7.178.026c-.202 0-.38-.051-.557-.127a1.452 1.452 0 01-.457-.305 1.265 1.265 0 01-.279-.431 1.486 1.486 0 01-.127-.559c0-.203.05-.38.127-.559.076-.177.152-.33.28-.456.126-.128.278-.229.456-.305.177-.076.355-.102.583-.102.254 0 .457.051.634.127a1.1 1.1 0 01.431.33l-.456.508a.79.79 0 00-.28-.229c-.075-.05-.202-.075-.355-.075l-.253.05-.203.178-.152.228-.051.28v.025c0 .102.025.203.05.28a.525.525 0 00.153.253c.05.076.127.127.203.152.076.026.178.051.304.051a.705.705 0 00.33-.076l.279-.203.456.457a2.175 2.175 0 01-.456.355c-.177.102-.38.153-.66.153zm-3.55 0c-.178 0-.38-.051-.559-.127a1.06 1.06 0 01-.456-.28 1.264 1.264 0 01-.28-.431 1.512 1.512 0 01-.126-.584c0-.203.025-.38.101-.559.077-.177.153-.33.28-.456.126-.128.253-.229.43-.305.178-.076.355-.102.559-.102.228 0 .405.051.583.127a.874.874 0 01.406.33c.101.127.178.28.254.457.05.178.076.381.076.559l-.026.101v.102H40.88a.6.6 0 00.228.406.788.788 0 00.431.127.888.888 0 00.356-.076c.076-.026.178-.102.304-.203l.432.38a1.083 1.083 0 01-.457.381 1.33 1.33 0 01-.66.153zm.507-1.65a.824.824 0 00-.178-.432.517.517 0 00-.38-.152.536.536 0 00-.406.152.85.85 0 00-.203.431h1.167zm6.011 1.624a.934.934 0 01-.684-.28c-.153-.177-.229-.405-.229-.735v-1.752h.761v1.523c0 .178.051.305.127.407a.503.503 0 00.355.126.608.608 0 00.355-.126.647.647 0 00.127-.407v-1.523h.76v2.716h-.76v-.38l-.152.152-.178.152-.203.102-.279.025zm10.02 0c-.178 0-.33-.025-.482-.101a1.114 1.114 0 01-.38-.254c-.128-.127-.204-.28-.28-.457a1.412 1.412 0 01-.101-.584v-.025c0-.229.025-.432.101-.61.076-.177.152-.304.28-.43a.78.78 0 01.38-.255c.152-.076.304-.102.481-.102a1 1 0 01.508.127c.127.077.254.152.33.28V18.29h.76v3.706h-.76v-.38a.947.947 0 01-.33.304 1 1 0 01-.508.127zm.177-.66a.92.92 0 00.28-.05l.202-.153c.05-.076.102-.152.127-.229l.05-.304v-.025l-.05-.305-.127-.229-.202-.152a.911.911 0 00-.28-.05l-.254.05-.203.152-.152.229a.956.956 0 00-.05.305v.025l.05.304a.606.606 0 00.152.23l.203.151.254.051zm-3.576.686c-.178 0-.38-.051-.558-.127a1.059 1.059 0 01-.457-.28 1.265 1.265 0 01-.279-.431 1.512 1.512 0 01-.127-.584c0-.203.025-.38.102-.559.076-.177.152-.33.279-.456.126-.128.253-.229.43-.305.179-.076.356-.102.559-.102.228 0 .406.051.584.127a.875.875 0 01.405.33c.101.127.178.28.254.457.05.178.076.381.076.559l-.025.101v.102h-1.878a.599.599 0 00.229.406.788.788 0 00.43.127.89.89 0 00.356-.076c.076-.026.178-.102.305-.203l.43.38a1.084 1.084 0 01-.456.381 1.33 1.33 0 01-.659.153zm.507-1.65a.826.826 0 00-.177-.432.517.517 0 00-.381-.152.537.537 0 00-.406.152.852.852 0 00-.203.431h1.167zm-4.337-1.143h.76v.533c.077-.177.203-.33.33-.431.127-.127.305-.178.533-.153v.813h-.025c-.28 0-.482.076-.61.228-.151.152-.227.407-.227.736v.99h-.761v-2.716zM60.97 7.756h1.09v.253h-.38V9.05h-.305V8.01h-.405v-.254zm2.714 0V9.05h-.305v-.837l-.33.558H63l-.33-.558v.837h-.304V7.756h.33l.354.558.33-.558h.305z"/><path fill="#000" d="M29.099 6.578h1.88V3.603h1.853V4.62h-2.794v2.925h-.94v.941h.94v-.941h.94v-.967h.94v-.966h1.092v.966h-1.092v.967h-.94v2.01h-.813v.788h-.838v1.17h-.762v.966H27.6v1.068h-.94v1.145h-.813v.94h-.762v1.095c-1.321 1.907-2.464 4.145-3.455 6.765-.203.56-.66.814-1.346.763-.737-.076-1.195-.356-1.398-.864-1.346-3.18-2.82-5.673-4.42-7.427-.533-.56-.685-1.043-.508-1.425.178-.381.483-.483.915-.356 1.574.509 3.277 2.035 5.106 4.604.812-2.111 1.93-4.197 3.353-6.308h.711v-.966h.635v-.941h.965v-1.5h1.017v-.866h.838v-.661h1.6v-.967h-.965v-.94h.966v.94zm-2.44 3.434h.94v-.94h-.94v.94zm6.25-6.41V2.586h1.016v1.018h-1.016z"/><path fill="#8E2242" d="M30.95 5.568v-.975h.946v.975h-.947zm2.943-.975v-1h1.024v1h-1.024zm0-2.001V1.59h1.024v1h-1.024z"/></g></svg>