<svg xmlns="http://www.w3.org/2000/svg" xmlns:xlink="http://www.w3.org/1999/xlink" width="63" height="35" viewBox="0 0 63 35"><defs><filter id="logo_general_rapid-ssl-a" width="100%" height="100%" x="0%" y="0%" filterUnits="objectBoundingBox"><feOffset in="SourceAlpha" result="shadowOffsetOuter1"/><feColorMatrix in="shadowOffsetOuter1" values="0 0 0 0 0 0 0 0 0 0 0 0 0 0 0 0 0 0 0.741762908 0"/></filter><path id="logo_general_rapid-ssl-b" d="M4.484 7.02l.968-.093c.058.323.176.561.354.713.178.152.419.228.721.228.32 0 .562-.068.724-.203.163-.135.244-.293.244-.474a.446.446 0 00-.102-.296c-.069-.082-.188-.152-.358-.213-.117-.04-.382-.111-.797-.214-.533-.132-.907-.294-1.122-.486-.303-.27-.454-.6-.454-.988 0-.25.071-.484.213-.701.143-.218.348-.384.615-.498.268-.114.591-.17.97-.17.618 0 1.084.134 1.396.405.313.27.477.63.493 1.081l-.995.044c-.043-.252-.134-.434-.274-.544-.14-.11-.35-.166-.63-.166-.29 0-.515.06-.679.177a.357.357 0 00-.158.305c0 .116.05.216.148.298.125.105.43.215.914.329.484.113.842.231 1.074.353.232.122.413.288.544.499.131.21.197.472.197.782a1.442 1.442 0 01-.9 1.338c-.288.12-.645.18-1.073.18-.623 0-1.101-.144-1.435-.431-.334-.287-.533-.705-.598-1.255zm5.884 1.598v-4.91h3.653v.83h-2.659v1.09h2.474v.826h-2.474v1.337h2.753v.827h-3.747zm8.783-1.805l.965.305c-.148.536-.394.934-.738 1.194-.344.26-.78.39-1.309.39-.654 0-1.191-.223-1.613-.668-.42-.446-.631-1.055-.631-1.827 0-.818.211-1.452.635-1.904.423-.453.98-.679 1.67-.679.603 0 1.092.178 1.468.533.224.21.392.511.505.904l-.985.235a1.04 1.04 0 00-.365-.603 1.047 1.047 0 00-.674-.221c-.365 0-.661.13-.888.392-.228.26-.341.684-.341 1.269 0 .62.112 1.063.336 1.326.224.264.515.395.873.395a.998.998 0 00.683-.25c.19-.168.327-.432.41-.791zm2.853-3.105h.995v2.66c0 .421.012.695.037.82a.795.795 0 00.304.484c.16.122.379.182.657.182.282 0 .495-.057.638-.172a.681.681 0 00.259-.424c.03-.167.044-.445.044-.834V3.708h.994v2.579c0 .59-.026 1.006-.08 1.25a1.38 1.38 0 01-.298.616c-.144.167-.337.3-.58.4-.241.1-.557.149-.947.149-.47 0-.827-.054-1.07-.163a1.53 1.53 0 01-.577-.422 1.351 1.351 0 01-.279-.544c-.065-.281-.097-.697-.097-1.246V3.708zm6.021 4.91v-4.91h2.094c.527 0 .91.044 1.148.132.238.089.43.245.573.47.143.226.215.484.215.775 0 .368-.109.672-.326.912-.218.24-.542.392-.975.454.215.125.393.262.533.412.14.15.329.415.566.797l.602.958h-1.19l-.72-1.068c-.255-.382-.43-.623-.523-.722a.763.763 0 00-.3-.204c-.105-.037-.272-.056-.5-.056h-.202v2.05h-.995zm.995-2.833h.736c.477 0 .775-.02.894-.06a.536.536 0 00.279-.208.638.638 0 00.1-.369.587.587 0 00-.132-.4.61.61 0 00-.375-.193 8.404 8.404 0 00-.726-.016h-.776v1.246zm5.013 2.833v-4.91h3.653v.83h-2.658v1.09h2.474v.826h-2.474v1.337h2.752v.827h-3.747zm5.629-4.91h1.818c.41 0 .722.031.937.094.29.085.537.235.743.452.206.217.363.482.47.795.108.314.162.701.162 1.161 0 .404-.05.752-.151 1.045-.124.357-.3.646-.528.867a1.75 1.75 0 01-.699.392c-.22.07-.513.104-.88.104h-1.872v-4.91zm.994.83v3.253h.743c.278 0 .478-.016.602-.047a.92.92 0 00.401-.204c.107-.096.194-.254.26-.474.068-.22.102-.52.102-.9s-.034-.67-.101-.874a1.123 1.123 0 00-.283-.475.948.948 0 00-.46-.231c-.139-.032-.411-.047-.817-.047h-.447zm7.977-.83h1.97c.39 0 .68.016.872.049.191.032.362.1.514.202.15.103.277.24.378.41.1.171.151.363.151.575 0 .23-.062.44-.187.633a1.155 1.155 0 01-.505.432c.3.087.53.236.692.445.161.21.242.457.242.74 0 .224-.052.441-.156.652-.105.211-.247.38-.427.506s-.403.204-.667.233c-.166.017-.566.029-1.2.033h-1.677v-4.91zm.995.817v1.136h.652a8.8 8.8 0 00.722-.017.659.659 0 00.402-.176.518.518 0 00.146-.383.538.538 0 00-.126-.37.571.571 0 00-.375-.173 11.688 11.688 0 00-.85-.017h-.571zm0 1.953V7.79h.92c.36 0 .587-.01.683-.03a.617.617 0 00.361-.196.602.602 0 00.14-.417.639.639 0 00-.108-.375.608.608 0 00-.31-.225c-.136-.047-.43-.07-.883-.07h-.803zm6.307 2.14V6.552L54.13 3.708h1.167l1.159 1.943 1.136-1.943h1.146l-1.812 2.85v2.06h-.991z"/></defs><g fill="none" fill-rule="evenodd"><path fill="#774C2B" fill-rule="nonzero" d="M1.412 0h60.176C62.368 0 63 .63 63 1.407v32.186A1.41 1.41 0 0161.588 35H1.412A1.41 1.41 0 010 33.593V1.407A1.41 1.41 0 011.412 0zm0 .528a.88.88 0 00-.883.879v32.186c0 .486.395.88.883.88h60.176a.88.88 0 00.883-.88V1.407a.88.88 0 00-.883-.88H1.412z"/><path fill="#FFF" d="M1.412.528a.88.88 0 00-.883.879v32.186c0 .486.395.88.883.88h60.176a.88.88 0 00.883-.88V1.407a.88.88 0 00-.883-.88H1.412z"/><path fill="#FAD100" d="M5.278 24.271h56.31v5.28a3.867 3.867 0 01-3.866 3.866H1.412v-5.28a3.867 3.867 0 013.866-3.866z"/><path fill="#774C2B" d="M5.278 1.583h56.31v5.28a3.867 3.867 0 01-3.866 3.866H1.412v-5.28a3.867 3.867 0 013.866-3.866zM22.02 21.215v-5.37h1.376v5.37H22.02zm.68-7.433c.43 0 .777.343.777.766a.771.771 0 01-.776.767.771.771 0 01-.776-.767c0-.423.347-.766.776-.766zm4.732.656l1.355-.69v7.467h-1.355v-.281l-.085-.034s-.448.41-1.155.41c-.983 0-2.077-.572-2.077-2.845s1.327-2.75 2.086-2.75c.758 0 1.23.443 1.23.443v-1.72zm0 5.1V17.51s-.3-.51-1.007-.51c-.707 0-.931.663-.931 1.601 0 .939.483 1.455 1.017 1.455.534 0 .92-.52.92-.52zm-8.248-3.823c.62 0 2.086.349 2.086 2.724 0 2.376-1.181 2.872-2.052 2.872-.87 0-1.203-.411-1.203-.411v1.55l-1.384.714v-7.318h1.384v.303s.548-.434 1.169-.434zm-.181 4.333c.68 0 .896-.746.896-1.446s-.133-1.593-1.008-1.593c-.617 0-.876.494-.876.494v2.034s.307.511.988.511zm-5.427-4.322c2.121 0 2.147 1.572 2.147 1.572v3.917h-1.348v-.34c0-.009-.74.436-1.22.436s-2.036-.198-2.036-1.859c0-1.66 1.596-1.798 2.226-1.798.63 0 1.03.177 1.03.177v-.276c0-.129 0-.722-.8-.722-1.14 0-1.449.326-1.449.326v-1.196s.439-.237 1.45-.237zm.799 3.907v-.664s-.214-.262-.9-.262-1.028.17-1.028.699c0 .528.446.752.884.752s.916-.302 1.044-.525zm-4.893-1.248c-.05.03-.06.06-.04.119.02.059 1.361 2.71 1.361 2.71H9.182L7.91 18.702s-.054-.057-.094-.057H6.392c-.07 0-.061.024-.061.037v2.534H4.95v-7.152h3.62s.987.068 1.643.65c.399.355.6 1.012.6 1.636 0 1.65-1.282 2.006-1.332 2.036zm-.99-1.087c.4 0 .86-.327.86-.89 0-.562-.26-1.008-.84-1.008-.581 0-2.181-.01-2.181-.01v1.908h2.16z"/><path fill="#EC501F" d="M47.451 20.579h.002a.228.228 0 01.07.044.957.957 0 01.124.166l.102.164h-.166l-.074-.132a.675.675 0 00-.142-.195.175.175 0 00-.108-.029h-.08v.356h-.135v-.837h.288c.099 0 .17.008.214.023a.214.214 0 01.145.204.223.223 0 01-.066.16.26.26 0 01-.174.076zm-2.084-.736l.835 1.372H42.27v-7.152h1.418v5.78h1.68zM38.77 16.88c1.638.417 2.397.784 2.397 2.299s-1.354 2.13-2.802 2.13c-1.905 0-2.853-1.262-2.853-1.262l.991-.885s.759.809 1.948.809c1.19 0 1.293-.605 1.293-.792 0-.084.104-.774-1.676-1.055-2.22-.477-2.255-1.48-2.255-2.036 0-1.132.854-2.154 2.509-2.154 1.69 0 2.681 1.09 2.681 1.09l-1.009.954s-.646-.724-1.68-.724c-.992 0-1.095.536-1.095.707 0 .17-.087.503 1.551.92zm-5.99 0c1.637.417 2.396.784 2.396 2.299s-1.354 2.13-2.802 2.13c-1.905 0-2.853-1.262-2.853-1.262l.991-.885s.758.809 1.948.809 1.293-.605 1.293-.792c0-.084.104-.774-1.676-1.055-2.22-.477-2.255-1.48-2.255-2.036 0-1.132.854-2.154 2.509-2.154 1.69 0 2.68 1.09 2.68 1.09l-1.008.954s-.646-.724-1.68-.724c-.992 0-1.096.536-1.096.707 0 .17-.086.503 1.552.92zm14.607 2.864c.13 0 .259.033.384.1a.715.715 0 01.291.288.786.786 0 01.002.777.724.724 0 01-.289.287.792.792 0 01-.776 0 .783.783 0 01-.287-1.065.719.719 0 01.291-.287.802.802 0 01.384-.1zm0 .129a.666.666 0 00-.32.084.654.654 0 00-.245.887.658.658 0 00.889.24.653.653 0 00.24-.887.6.6 0 00-.245-.24.667.667 0 00-.319-.084zm-.207.608h.165c.078 0 .132-.012.16-.035a.114.114 0 00.043-.093.113.113 0 00-.02-.067.123.123 0 00-.058-.043.427.427 0 00-.136-.015h-.154v.253z"/><path fill="#774C2B" d="M51.706 16.533v-1.041a4.235 4.235 0 118.47 0v1.04h.358c.582 0 1.054.473 1.054 1.055v.002c0 .582-.472 1.054-1.054 1.054h-9.185a1.055 1.055 0 01-1.055-1.054v-.002c0-.582.472-1.054 1.055-1.054h.357zm-.357 2.462h9.185c.582 0 1.054.472 1.054 1.054v.002c0 .582-.472 1.055-1.054 1.055h-9.185a1.055 1.055 0 01-1.055-1.055v-.002c0-.582.472-1.054 1.055-1.054zm0 2.462h9.185c.582 0 1.054.472 1.054 1.055v.001c0 .583-.472 1.055-1.054 1.055h-9.185a1.055 1.055 0 01-1.055-1.055v-.001c0-.583.472-1.055 1.055-1.055zm4.68-8.442a2.735 2.735 0 00-2.735 2.735v.783h5.47v-.783a2.735 2.735 0 00-2.735-2.735zM5.584 31.82v-.587a2.182 2.182 0 01-.719-.198 1.25 1.25 0 01-.478-.458 1.637 1.637 0 01-.234-.774l.593-.11c.046.315.126.547.242.695.166.208.365.325.596.349v-1.87a2.467 2.467 0 01-.743-.28 1.087 1.087 0 01-.434-.435 1.287 1.287 0 01-.152-.63c0-.417.148-.756.445-1.015.198-.174.493-.28.884-.32v-.28h.347v.28c.343.033.614.133.815.3.258.214.413.507.465.879l-.609.091c-.035-.23-.107-.407-.218-.53a.804.804 0 00-.453-.243v1.693c.297.074.493.132.59.173.183.08.332.179.448.294.116.115.205.252.267.411.062.159.093.33.093.516 0 .407-.13.746-.39 1.018s-.595.418-1.008.437v.594h-.347zm0-5.143a.875.875 0 00-.542.274.763.763 0 00-.198.526c0 .2.056.367.169.502.112.135.302.243.57.323v-1.625zm.347 4.06a.875.875 0 00.568-.297c.15-.17.224-.38.224-.63 0-.213-.053-.385-.158-.514-.106-.13-.317-.245-.634-.348v1.789zm4.21.395h-.589v-3.743c-.141.134-.328.27-.558.404-.23.135-.437.236-.62.304v-.568a3.56 3.56 0 00.864-.561c.247-.22.421-.433.524-.64h.38v4.804zm1.51-2.36c0-.565.059-1.02.175-1.366.117-.344.29-.61.521-.797.23-.188.52-.281.87-.281.257 0 .483.052.677.155.194.103.355.252.482.447.126.195.225.432.298.711.072.28.108.657.108 1.131 0 .562-.058 1.015-.174 1.36-.116.344-.289.61-.519.799-.23.188-.521.282-.873.282-.462 0-.826-.165-1.09-.496-.316-.398-.475-1.046-.475-1.945zm.606 0c0 .786.092 1.308.277 1.568.184.26.412.39.682.39.271 0 .499-.13.683-.391.185-.261.277-.784.277-1.567 0-.787-.092-1.31-.277-1.57-.184-.258-.414-.388-.69-.388a.756.756 0 00-.647.343c-.203.291-.305.83-.305 1.615zm3.441 2.36v-.67h.672v.67c0 .245-.044.444-.131.595a.853.853 0 01-.416.351l-.164-.251a.559.559 0 00.275-.24c.06-.106.092-.257.098-.455h-.334zm1.546-2.36c0-.565.058-1.02.175-1.366.117-.344.29-.61.52-.797.231-.188.52-.281.87-.281.258 0 .484.052.678.155.194.103.355.252.481.447.127.195.226.432.298.711.072.28.108.657.108 1.131 0 .562-.058 1.015-.173 1.36-.116.344-.29.61-.52.799-.23.188-.52.282-.872.282-.463 0-.826-.165-1.09-.496-.317-.398-.475-1.046-.475-1.945zm.606 0c0 .786.092 1.308.276 1.568.185.26.412.39.683.39.27 0 .498-.13.683-.391.184-.261.276-.784.276-1.567 0-.787-.092-1.31-.276-1.57-.185-.258-.414-.388-.69-.388a.756.756 0 00-.648.343c-.203.291-.304.83-.304 1.615zm3.123 0c0-.565.059-1.02.176-1.366.116-.344.29-.61.52-.797.23-.188.52-.281.87-.281.257 0 .483.052.677.155.195.103.355.252.482.447.126.195.226.432.298.711.072.28.108.657.108 1.131 0 .562-.058 1.015-.174 1.36-.116.344-.289.61-.519.799-.23.188-.521.282-.872.282-.463 0-.827-.165-1.09-.496-.317-.398-.476-1.046-.476-1.945zm.606 0c0 .786.092 1.308.277 1.568.184.26.412.39.683.39.27 0 .498-.13.682-.391.185-.261.277-.784.277-1.567 0-.787-.092-1.31-.277-1.57-.184-.258-.414-.388-.689-.388a.756.756 0 00-.648.343c-.203.291-.305.83-.305 1.615zm3.124 0c0-.565.058-1.02.175-1.366.117-.344.29-.61.52-.797.231-.188.52-.281.87-.281.258 0 .484.052.678.155.194.103.355.252.481.447.127.195.226.432.298.711.072.28.108.657.108 1.131 0 .562-.058 1.015-.173 1.36-.116.344-.29.61-.52.799-.23.188-.52.282-.872.282-.463 0-.826-.165-1.09-.496-.317-.398-.475-1.046-.475-1.945zm.606 0c0 .786.092 1.308.276 1.568.185.26.412.39.683.39.27 0 .498-.13.683-.391.184-.261.276-.784.276-1.567 0-.787-.092-1.31-.276-1.57-.185-.258-.414-.388-.69-.388a.756.756 0 00-.648.343c-.203.291-.304.83-.304 1.615zm6.064 2.36l-1.274-4.784h.652l.73 3.136c.078.328.146.654.203.979.122-.512.194-.806.216-.885l.913-3.23h.767l.687 2.421c.173.6.297 1.165.374 1.694.06-.303.14-.65.239-1.041l.753-3.074h.638l-1.316 4.784h-.612l-1.012-3.646a15.423 15.423 0 01-.15-.56c-.051.219-.098.406-.142.56l-1.018 3.646h-.648zm7.436-.428a2.196 2.196 0 01-.63.392 1.827 1.827 0 01-.65.114c-.382 0-.676-.093-.881-.279a.92.92 0 01-.308-.713.96.96 0 01.42-.803c.126-.085.268-.149.425-.192.115-.03.29-.06.524-.089.475-.056.826-.124 1.05-.202a7.75 7.75 0 00.004-.153c0-.24-.056-.408-.167-.506-.15-.133-.374-.2-.671-.2-.278 0-.482.05-.614.146-.132.097-.23.268-.293.514l-.577-.078a1.42 1.42 0 01.26-.596c.12-.151.293-.267.52-.349a2.33 2.33 0 01.789-.122c.297 0 .538.034.723.104.186.07.322.157.41.263a.923.923 0 01.183.4c.02.1.03.28.03.541v.783c0 .547.012.892.037 1.037.025.144.075.283.15.416h-.616a1.242 1.242 0 01-.118-.428zm-.05-1.312c-.213.087-.534.161-.962.222a2.233 2.233 0 00-.514.118.5.5 0 00-.314.47.5.5 0 00.178.391c.119.105.293.157.522.157.227 0 .43-.05.606-.149a.916.916 0 00.39-.406c.063-.133.095-.328.095-.587v-.216zm1.504 1.74v-3.466h.53v.525c.135-.246.26-.408.375-.486a.656.656 0 01.378-.117c.199 0 .4.063.606.189l-.203.545a.845.845 0 00-.432-.127.563.563 0 00-.347.115.628.628 0 00-.22.322 2.28 2.28 0 00-.098.685v1.815h-.59zm2.233 0v-3.466h.53v.525c.136-.246.26-.408.375-.486a.656.656 0 01.378-.117c.199 0 .4.063.606.189l-.203.545a.845.845 0 00-.432-.127.563.563 0 00-.347.115.628.628 0 00-.22.322 2.28 2.28 0 00-.098.685v1.815h-.59zm4.509-.428a2.196 2.196 0 01-.63.392 1.827 1.827 0 01-.65.114c-.383 0-.676-.093-.882-.279a.92.92 0 01-.307-.713.96.96 0 01.42-.803c.126-.085.267-.149.424-.192.116-.03.29-.06.524-.089.476-.056.827-.124 1.051-.202a7.75 7.75 0 00.004-.153c0-.24-.056-.408-.167-.506-.15-.133-.375-.2-.672-.2-.277 0-.481.05-.614.146-.132.097-.23.268-.293.514l-.576-.078a1.42 1.42 0 01.259-.596c.12-.151.293-.267.52-.349a2.33 2.33 0 01.79-.122c.296 0 .538.034.723.104.186.07.322.157.41.263a.923.923 0 01.183.4c.02.1.03.28.03.541v.783c0 .547.012.892.037 1.037.025.144.075.283.149.416h-.616a1.242 1.242 0 01-.117-.428zm-.05-1.312c-.214.087-.534.161-.962.222a2.233 2.233 0 00-.514.118.5.5 0 00-.314.47.5.5 0 00.178.391c.119.105.293.157.522.157.227 0 .429-.05.606-.149a.916.916 0 00.39-.406c.063-.133.094-.328.094-.587v-.216zm1.51 1.74v-3.466h.53v.493c.256-.381.625-.571 1.107-.571.21 0 .402.037.578.112a.909.909 0 01.395.296c.087.121.148.266.183.434.022.108.033.299.033.57v2.132h-.59v-2.108c0-.24-.023-.419-.069-.537a.565.565 0 00-.243-.284.778.778 0 00-.411-.106.957.957 0 00-.65.238c-.183.159-.274.46-.274.904v1.893h-.59zm5.016-.526l.085.52a2.193 2.193 0 01-.445.051c-.214 0-.38-.033-.498-.1a.567.567 0 01-.249-.267c-.048-.11-.072-.34-.072-.693v-1.994h-.432v-.457h.432v-.858l.587-.353v1.21h.592v.458h-.592v2.026c0 .168.01.276.03.323.021.048.055.086.102.115a.393.393 0 00.202.042c.065 0 .151-.008.258-.023zm.55 1.86l-.065-.551c.129.035.241.052.337.052a.649.649 0 00.314-.065.535.535 0 00.194-.183c.037-.059.097-.204.18-.437.01-.033.028-.08.052-.144l-1.32-3.472h.636l.723 2.007c.094.254.178.522.252.803.068-.27.149-.533.243-.79l.743-2.02h.59l-1.323 3.524c-.142.381-.253.643-.331.787a1.161 1.161 0 01-.36.426.853.853 0 01-.485.135c-.113 0-.24-.024-.38-.072z"/><use fill="#000" filter="url(#logo_general_rapid-ssl-a)" xlink:href="#logo_general_rapid-ssl-b"/><use fill="#FFF" xlink:href="#logo_general_rapid-ssl-b"/></g></svg>