<svg xmlns="http://www.w3.org/2000/svg" width="54" height="35" viewBox="0 0 54 35"><path fill="#FFF" fill-rule="evenodd" d="M27.33 16.64v-3.663c.833 0 1.666.22 2.5.485a11.133 11.133 0 01-2.5 3.177zm-.615-.044c-1.01-.795-1.93-1.943-2.545-3.134.834-.31 1.668-.485 2.545-.485v3.619zM27.33.354c.965.794 1.886 1.941 2.5 3.133-.833.309-1.666.486-2.5.486V.353zm-.614 0v3.619c-.877 0-1.71-.22-2.545-.486.615-1.192 1.536-2.34 2.545-3.133zm.614 12.005V8.783h3.729c0 1.413-.35 2.825-.965 4.105-.833-.309-1.843-.53-2.764-.53zm8.115-3.576c-.088 2.163-1.008 4.237-2.5 5.782-.702-.574-1.448-1.06-2.237-1.412a11.54 11.54 0 00.965-4.37h3.772zm-2.983 6.179c-1.316 1.147-2.894 1.765-4.606 1.986a10.905 10.905 0 002.545-3.266 8.135 8.135 0 012.061 1.28zm-5.746-2.603c-.965 0-1.93.22-2.807.53-.614-1.237-.921-2.693-.966-4.106h3.773v3.576zm-8.16-3.576h3.773c.044 1.545.395 2.913 1.01 4.37-.834.353-1.58.838-2.282 1.412-1.491-1.545-2.412-3.575-2.5-5.782zm2.984 6.179c.614-.485 1.316-1.015 2.061-1.28a10.914 10.914 0 002.545 3.266c-1.71-.22-3.29-.839-4.606-1.986zM27.33 4.59c.921-.045 1.886-.22 2.764-.575.614 1.324.965 2.693.965 4.15h-3.729V4.59zm8.115 3.574h-3.772c-.044-1.545-.395-2.957-.965-4.37.789-.352 1.535-.838 2.236-1.412 1.58 1.633 2.413 3.62 2.501 5.782zm-2.983-6.223c-.614.53-1.316 1.015-2.061 1.324C29.742 1.986 28.909.971 27.855 0a8.454 8.454 0 014.606 1.942zm-5.746 2.649v3.574h-3.773a10.63 10.63 0 01.966-4.149c.877.354 1.842.53 2.807.575zm-8.16 3.574c.089-2.207.966-4.237 2.501-5.782.702.574 1.448 1.06 2.281 1.413-.614 1.412-.965 2.78-1.009 4.37h-3.772zm2.984-6.223A8.455 8.455 0 0126.145 0c-1.009.927-1.93 1.986-2.545 3.266-.745-.309-1.447-.794-2.06-1.324zM0 11.299h16.845c.614 3.134 2.764 5.738 7.062 7.547-.482 1.5-2.149 2.869-3.86 2.869H10.88c-1.404 0-2.5-1.191-2.939-2.163h9.3c.57-.088.57-.53.044-.618H8.115c-1.184 0-2.237-1.015-2.85-2.118H15.88c.57-.089.57-.53 0-.618H5.176c-1.096 0-2.061-1.28-2.456-2.119h11.756c.57-.088.57-.618 0-.662H2.5c-.965 0-1.842-1.015-2.5-2.118zm54 0c-.658 1.103-1.535 2.118-2.5 2.118H39.523c-.57.044-.57.574 0 .662H51.28c-.395.839-1.36 2.12-2.457 2.12H38.12c-.57.087-.57.528 0 .617h10.616c-.614 1.103-1.667 2.118-2.851 2.118h-9.169c-.526.089-.526.53.044.618h9.3c-.438.972-1.535 2.163-2.939 2.163h-9.168c-1.71 0-3.378-1.368-3.86-2.869 4.299-1.81 6.448-4.413 7.062-7.547H54zM35.006 35l5.395-11.122h3.554L46.19 35h-3.378l-.13-1.323H39.13L38.56 35h-3.554zm5-3.619h2.282l-.57-4.104-1.711 4.104zM27.944 35l1.272-8.342h-3.158l.527-2.824h9.65l-.526 2.824h-2.983L31.496 35h-3.553zm-14.476 0l5.44-11.122h3.553L24.653 35h-3.29l-.22-1.323h-3.508L17.065 35h-3.598zm5.045-3.619h2.281l-.614-4.104-1.667 4.104zM7.677 35L9.87 23.878h3.597L11.274 35H7.677z"/></svg>