<?xml version="1.0" standalone="no"?>
<!DOCTYPE svg PUBLIC "-//W3C//DTD SVG 20010904//EN"
 "http://www.w3.org/TR/2001/REC-SVG-20010904/DTD/svg10.dtd">
<svg version="1.0" xmlns="http://www.w3.org/2000/svg"
 width="840.000000pt" height="859.000000pt" viewBox="0 0 840.000000 859.000000"
 preserveAspectRatio="xMidYMid meet">
<metadata>
Created by potrace 1.16, written by Peter Selinger 2001-2019
</metadata>
<g transform="translate(0.000000,859.000000) scale(0.100000,-0.100000)"
fill="#000000" stroke="none">
<path d="M263 7370 c-51 -11 -88 -33 -130 -78 -66 -71 -63 -23 -63 -1113 0
-1097 -4 -1039 68 -1112 20 -20 53 -46 74 -57 38 -20 65 -20 4013 -20 l3974 0
43 22 c50 25 89 66 118 120 20 38 20 55 20 1050 0 1005 0 1012 -21 1055 -24
50 -88 108 -138 126 -29 9 -864 12 -3976 13 -2167 1 -3959 -2 -3982 -6z m1515
-392 c-10 -151 -136 -291 -268 -300 l-45 -3 2 57 c4 129 108 257 238 295 77
22 78 21 73 -49z m2672 -173 l0 -215 -30 0 -30 0 0 215 0 215 30 0 30 0 0
-215z m1078 -2 l2 -213 -35 0 c-26 0 -35 4 -35 17 0 15 -2 14 -20 -2 -13 -12
-35 -17 -72 -17 -48 0 -55 3 -84 36 -46 54 -53 151 -14 212 29 47 124 74 153
45 28 -28 37 -11 37 65 l0 75 33 -3 32 -3 3 -212z m1502 137 l0 -81 31 16 c61
32 129 13 149 -41 6 -14 10 -75 10 -135 l0 -109 -35 0 -35 0 0 108 c0 119 -5
132 -56 132 -52 0 -64 -27 -64 -142 l0 -98 -35 0 -35 0 0 208 c0 115 3 212 7
215 3 4 19 7 35 7 l28 0 0 -80z m-4034 34 c40 -23 70 -69 79 -121 9 -54 -3
-150 -21 -168 -8 -7 -14 -17 -14 -21 0 -10 -28 -31 -72 -54 -30 -16 -57 -20
-133 -20 l-95 0 0 199 c0 150 3 201 13 205 6 3 57 4 112 2 72 -3 109 -9 131
-22z m3812 -52 c3 -27 8 -31 35 -34 56 -5 46 -57 -10 -58 -22 0 -23 -3 -23
-89 l0 -88 33 -9 c41 -12 50 -49 14 -58 -33 -8 -84 3 -99 21 -7 9 -14 56 -16
114 -4 90 -6 99 -28 114 -31 20 -31 43 1 51 18 4 25 13 25 30 0 16 8 28 23 34
32 13 42 7 45 -28z m-2558 -69 c17 -22 20 -41 20 -144 l0 -119 -35 0 -35 0 0
108 c0 118 -6 132 -53 132 -50 0 -57 -17 -57 -134 l0 -106 -35 0 -35 0 0 140
c0 77 -1 143 -2 148 -6 15 52 13 58 -2 5 -13 10 -13 27 -4 60 32 112 25 147
-19z m510 24 c74 -34 102 -134 60 -217 -27 -53 -60 -73 -123 -73 -95 -2 -147
53 -147 153 0 67 26 111 80 137 47 22 81 22 130 0z m360 -19 c29 -28 30 -33
30 -118 0 -48 3 -102 6 -119 6 -30 5 -31 -29 -31 -19 0 -37 6 -40 13 -3 9 -8
9 -21 -2 -9 -8 -38 -14 -63 -14 -38 0 -50 5 -70 27 -54 63 -9 149 85 161 74
10 75 11 55 41 -16 25 -20 26 -75 20 -53 -5 -58 -4 -58 14 0 23 13 32 60 40
55 9 88 0 120 -32z m2380 26 c49 -20 80 -67 80 -123 l0 -41 -95 0 c-85 0 -95
-2 -95 -18 0 -42 25 -57 97 -57 65 -1 68 -2 68 -25 0 -21 -6 -26 -40 -32 -100
-17 -166 17 -192 99 -14 46 -15 58 -3 95 17 51 69 105 108 111 15 2 28 5 29 6
2 0 21 -6 43 -15z m-4127 -10 c48 -23 67 -60 67 -134 0 -104 -45 -153 -140
-153 -96 0 -140 48 -140 151 0 69 22 111 70 138 34 18 102 17 143 -2z m202 6
c9 -14 45 -161 45 -184 0 -33 20 -4 31 45 5 24 13 53 18 64 5 11 12 34 17 50
7 22 16 31 35 33 24 3 27 -2 43 -55 10 -32 21 -69 26 -83 4 -14 11 -34 14 -44
9 -25 16 -16 27 36 6 24 17 67 25 96 14 47 18 52 45 52 42 0 43 8 -35 -230
-20 -61 -23 -65 -53 -68 -28 -3 -33 0 -39 25 -4 15 -10 33 -14 38 -4 6 -11 29
-15 52 -7 46 -34 93 -35 60 0 -10 -12 -53 -27 -97 -26 -77 -28 -80 -58 -80
l-32 0 -33 113 c-18 61 -36 125 -41 141 -5 15 -6 32 -3 37 7 12 51 11 59 -1z
m2438 -6 c48 -23 67 -60 67 -134 0 -104 -45 -153 -140 -153 -94 0 -140 48
-140 147 0 67 24 117 68 141 36 19 104 19 145 -1z m225 -1 c9 -16 11 -16 36 0
29 20 94 22 117 4 37 -28 49 -73 49 -182 l0 -105 -35 0 -35 0 0 89 c0 48 -5
102 -11 120 -9 26 -16 31 -44 31 -53 0 -65 -26 -65 -142 l0 -98 -35 0 -35 0 0
143 c0 79 3 147 7 150 12 13 42 7 51 -10z m-4338 -240 c60 -22 151 -92 162
-124 2 -7 -19 -35 -47 -61 -28 -26 -58 -62 -67 -80 -9 -18 -22 -46 -29 -62
-23 -47 -17 -191 9 -248 25 -56 90 -129 141 -160 20 -12 38 -23 40 -25 7 -5
-32 -113 -41 -113 -4 0 -8 -6 -8 -13 0 -7 -16 -36 -35 -66 -19 -29 -35 -55
-35 -57 0 -4 -27 -37 -79 -96 -49 -56 -111 -82 -181 -75 -31 3 -65 10 -76 16
-69 39 -208 56 -252 31 -89 -51 -195 -63 -252 -29 -117 70 -240 264 -307 484
-26 88 -26 351 1 415 38 91 52 114 102 164 73 73 150 109 246 114 76 4 112 -4
205 -44 47 -21 109 -17 182 13 36 14 82 30 101 34 50 11 167 1 220 -18z m3508
-339 c32 -9 60 -21 63 -26 8 -13 -16 -101 -29 -106 -6 -2 -24 4 -41 12 -42 22
-168 22 -201 0 -40 -27 -50 -45 -50 -91 0 -35 6 -49 28 -70 26 -24 40 -32 163
-87 31 -13 77 -44 102 -68 38 -36 48 -53 60 -103 27 -116 -16 -209 -124 -269
-52 -29 -59 -31 -175 -31 -74 0 -126 4 -135 11 -8 6 -26 14 -41 18 -31 7 -35
26 -17 89 11 42 8 42 89 12 32 -12 68 -16 127 -13 75 3 84 6 112 32 27 26 31
37 31 80 -1 73 -31 105 -145 151 -109 44 -167 90 -198 154 -23 47 -22 132 3
181 58 115 223 169 378 124z m-2294 -46 c9 -24 39 -115 67 -203 28 -88 55
-169 59 -180 5 -11 25 -74 45 -140 20 -66 40 -129 45 -140 18 -43 37 -115 32
-120 -3 -3 -35 -5 -72 -5 l-66 0 -16 48 c-9 26 -26 80 -38 120 l-23 72 -131 0
c-145 0 -147 0 -160 -70 -4 -19 -11 -44 -16 -55 -5 -11 -14 -40 -22 -65 l-13
-45 -67 -3 c-62 -3 -68 -1 -68 17 0 11 6 35 14 53 8 18 24 67 36 108 12 41 25
84 30 95 4 11 31 94 60 185 28 91 55 174 60 185 4 11 18 54 30 95 13 41 25 78
27 83 2 4 42 7 88 7 l83 0 16 -42z m2694 -111 l3 -66 67 -3 67 -3 3 -52 3 -52
-68 -3 -68 -3 -3 -167 c-3 -204 1 -215 81 -220 l52 -3 3 -51 c3 -50 2 -51 -29
-58 -102 -20 -193 9 -224 73 -15 29 -19 72 -24 231 l-6 195 -40 5 c-38 5 -40
7 -43 43 -4 48 11 67 54 67 l34 0 0 49 c0 28 5 53 10 56 16 10 103 33 115 30
6 -1 11 -31 13 -68z m1702 -88 c76 -39 129 -143 130 -256 l0 -63 -201 0 -202
0 6 -42 c3 -24 11 -44 16 -46 6 -2 11 -9 11 -15 0 -17 58 -53 108 -68 36 -10
55 -10 123 5 45 10 82 16 83 14 9 -12 24 -83 20 -90 -3 -4 -13 -8 -23 -8 -9 0
-23 -6 -29 -12 -18 -18 -246 -18 -263 0 -7 6 -20 12 -28 12 -21 0 -92 67 -118
110 -65 110 -46 296 39 396 74 86 226 116 328 63z m-3922 9 c7 -7 12 -24 12
-38 0 -39 9 -42 36 -11 37 44 83 61 163 61 113 0 170 -36 222 -140 26 -53 29
-69 29 -157 0 -66 -5 -112 -17 -143 -40 -109 -137 -180 -246 -180 -59 0 -125
22 -140 47 -20 33 -27 3 -29 -129 l-3 -143 -65 0 -65 0 -5 415 c-3 271 -2 418
5 422 16 12 90 9 103 -4z m690 0 c7 -7 12 -28 12 -46 l0 -35 24 26 c45 48 94
67 174 67 111 0 168 -36 224 -141 20 -39 23 -57 23 -159 -1 -99 -4 -122 -24
-165 -47 -99 -133 -155 -238 -155 -57 0 -133 26 -147 49 -20 32 -26 0 -26
-134 l0 -145 -65 0 -65 0 0 425 0 425 48 0 c26 0 53 -5 60 -12z m2177 -9 c56
-30 93 -66 123 -124 24 -45 27 -60 27 -160 -1 -94 -4 -116 -23 -152 -33 -62
-75 -106 -128 -134 -63 -32 -206 -35 -269 -5 -72 35 -123 99 -149 188 -20 71
-20 125 0 196 29 98 76 156 158 193 61 28 207 27 261 -2z m388 -26 l8 -41 45
44 c43 41 49 44 100 44 l54 0 0 -52 c0 -29 -4 -57 -8 -63 -4 -5 -24 -10 -44
-11 -46 -1 -82 -19 -105 -53 -15 -22 -19 -57 -23 -226 l-5 -200 -70 0 -70 0
-3 294 c-2 229 1 296 10 303 7 4 33 7 58 6 44 -3 45 -4 53 -45z"/>
<path d="M5347 6820 c-15 -12 -29 -36 -33 -55 -12 -64 13 -111 64 -121 72 -15
114 109 57 170 -29 31 -53 33 -88 6z"/>
<path d="M2817 6943 c-12 -11 -8 -291 3 -298 6 -4 34 -4 62 0 107 15 159 125
108 231 -16 32 -30 45 -63 58 -44 16 -98 21 -110 9z"/>
<path d="M4651 6821 c-26 -26 -35 -79 -22 -128 22 -80 108 -77 130 4 27 96
-49 183 -108 124z"/>
<path d="M5015 6721 c-35 -20 -43 -54 -20 -78 35 -34 115 33 89 75 -15 23 -33
24 -69 3z"/>
<path d="M7413 6832 c-6 -4 -15 -20 -18 -35 l-7 -27 61 0 c52 0 61 3 61 18 -1
41 -59 68 -97 44z"/>
<path d="M3256 6819 c-23 -18 -26 -28 -26 -78 0 -50 4 -62 26 -85 15 -14 34
-26 44 -26 10 0 29 12 44 26 22 22 26 36 26 80 0 90 -54 130 -114 83z"/>
<path d="M5895 6815 c-20 -20 -25 -34 -25 -78 0 -45 4 -59 26 -81 15 -14 35
-26 44 -26 10 0 29 12 44 26 22 23 26 35 26 84 0 46 -4 60 -23 78 -30 29 -62
28 -92 -3z"/>
<path d="M2992 6103 c-22 -81 -53 -186 -68 -226 -25 -67 -25 -67 84 -67 54 0
101 3 104 6 6 5 0 28 -27 104 -16 45 -42 133 -55 188 -6 23 -14 42 -18 42 -4
0 -13 -21 -20 -47z"/>
<path d="M7330 5973 c-21 -8 -70 -63 -81 -91 -20 -52 -19 -52 126 -52 123 0
135 2 135 18 0 31 -44 106 -70 119 -26 13 -83 16 -110 6z"/>
<path d="M3698 5950 c-62 -33 -78 -71 -78 -190 0 -125 17 -161 88 -191 43 -19
48 -19 93 -4 60 20 86 54 105 137 25 107 -12 215 -87 252 -42 21 -76 20 -121
-4z"/>
<path d="M4397 5954 c-70 -38 -97 -96 -96 -202 1 -102 24 -148 93 -180 48 -23
50 -23 94 -6 52 20 79 44 88 79 3 14 10 28 15 31 5 3 9 42 8 87 -1 100 -24
150 -84 184 -47 26 -79 28 -118 7z"/>
<path d="M6238 5950 c-48 -37 -68 -91 -68 -188 0 -100 21 -150 79 -189 40 -27
78 -29 124 -7 35 17 77 69 77 97 0 8 5 19 10 22 6 3 10 37 10 75 0 81 -23 142
-69 183 -25 22 -40 27 -83 27 -37 -1 -61 -7 -80 -20z"/>
<path d="M438 4041 c-26 -4 -77 -22 -114 -41 -127 -65 -210 -174 -235 -306 -6
-32 -9 -452 -7 -1085 l3 -1034 34 -70 c54 -110 146 -195 263 -242 41 -17 235
-18 3803 -21 3472 -3 3765 -2 3830 14 39 9 88 25 110 36 63 33 132 105 167
177 l33 66 3 1030 c3 988 -1 1150 -26 1202 -5 10 -18 36 -28 58 -26 56 -129
156 -188 184 -27 12 -74 27 -105 32 -64 10 -7468 10 -7543 0z m1836 -384 c9
-7 28 -44 41 -82 14 -39 29 -79 35 -90 5 -11 19 -45 30 -75 12 -30 27 -68 35
-85 26 -57 23 -70 -13 -73 -40 -4 -59 9 -67 49 l-7 29 -92 0 c-99 0 -100 0
-120 -62 -8 -26 -86 -26 -86 0 0 10 4 22 8 27 4 6 18 37 31 70 13 33 29 74 37
92 8 17 14 36 14 41 0 6 6 23 14 39 8 15 23 48 32 73 10 25 23 48 29 52 16 12
60 9 79 -5z m290 7 c18 -7 106 -118 106 -134 0 -6 4 -10 9 -10 5 0 26 -27 47
-59 21 -33 42 -57 46 -55 5 3 8 56 8 119 0 129 4 145 34 145 46 0 47 -5 44
-216 l-3 -199 -39 0 c-28 0 -42 5 -50 19 -6 11 -18 27 -27 36 -9 10 -25 31
-35 49 -10 17 -22 31 -26 31 -4 0 -8 5 -8 10 0 6 -19 36 -42 67 l-43 57 -3
-132 c-3 -130 -3 -132 -26 -138 -61 -15 -61 -17 -64 195 -2 134 1 198 9 207
12 15 37 18 63 8z m646 -19 c43 -22 87 -67 100 -101 6 -14 10 -55 10 -92 0
-145 -85 -206 -275 -200 l-90 3 -3 194 c-2 143 1 197 10 208 18 22 199 13 248
-12z m452 4 c43 -22 62 -66 56 -132 -5 -57 -31 -97 -65 -97 -20 0 -16 -22 12
-60 14 -19 25 -38 25 -43 0 -4 7 -15 15 -23 26 -26 18 -44 -17 -44 -18 0 -39
4 -46 8 -11 8 -43 59 -74 120 -8 16 -20 22 -44 22 l-33 0 -3 -72 -3 -73 -37
-3 -38 -3 0 204 c0 112 3 207 8 211 12 13 214 0 244 -15z m436 1 c55 -29 68
-42 92 -88 19 -35 22 -55 19 -121 -4 -72 -7 -81 -40 -122 -38 -46 -106 -79
-164 -79 -58 0 -126 33 -163 78 -32 40 -36 50 -40 122 -4 68 -1 85 18 122 22
43 39 59 94 90 44 24 137 23 184 -2z m267 -190 l0 -205 -32 -3 -33 -3 0 204
c0 112 3 207 7 211 4 4 19 6 33 4 l25 -3 0 -205z m344 191 c58 -24 106 -73
125 -129 20 -57 19 -86 -3 -140 -40 -100 -111 -135 -262 -130 l-94 3 -3 185
c-1 102 0 195 3 208 5 21 10 22 98 21 64 0 105 -6 136 -18z m616 -27 c11 -22
26 -56 33 -75 8 -19 20 -50 27 -69 54 -139 85 -221 85 -226 0 -3 -19 -4 -42
-2 -39 3 -44 6 -54 38 l-12 35 -94 3 -95 3 -16 -41 c-14 -38 -18 -40 -56 -40
-23 0 -41 2 -41 4 0 7 70 189 85 223 8 17 15 38 15 46 0 9 4 18 9 22 5 3 12
18 16 33 3 15 15 43 26 60 17 29 24 33 57 30 32 -3 40 -8 57 -44z m468 13 c46
-35 64 -91 46 -145 -22 -67 -68 -92 -170 -92 l-58 0 -3 -72 -3 -73 -35 0 -35
0 -3 195 c-1 107 0 201 3 208 4 11 29 13 113 10 101 -3 111 -5 145 -31z m370
16 c52 -27 71 -60 71 -118 0 -91 -58 -135 -179 -135 l-65 0 0 -75 0 -75 -35 0
-35 0 0 210 0 210 105 0 c79 0 112 -4 138 -17z m606 -2 c60 -26 98 -74 111
-138 19 -88 -7 -176 -65 -225 -28 -24 -101 -48 -144 -48 -40 0 -110 29 -140
57 -63 60 -80 177 -39 262 25 53 37 65 93 91 51 25 131 26 184 1z m291 -3 c11
-12 49 -63 85 -113 35 -50 73 -102 84 -114 l20 -23 3 133 3 134 35 0 35 0 0
-205 0 -205 -29 -3 c-20 -3 -36 4 -57 24 -16 15 -29 34 -29 41 0 7 -3 13 -7
13 -5 0 -19 17 -33 38 -13 20 -46 66 -72 101 l-47 63 -3 -138 -3 -139 -37 -3
-38 -3 0 204 c0 112 3 207 7 210 14 15 63 6 83 -15z m-6530 -728 c0 -5 6 -10
14 -10 8 0 21 -6 28 -14 8 -7 25 -17 38 -21 14 -4 27 -10 30 -14 6 -7 40 -26
140 -77 41 -21 107 -57 146 -79 38 -22 92 -51 120 -65 27 -14 51 -27 54 -30 5
-5 27 -17 145 -79 39 -20 72 -39 73 -43 2 -5 8 -8 12 -8 5 0 33 -14 62 -31 29
-17 96 -54 148 -81 104 -55 115 -63 124 -95 7 -24 -21 -60 -64 -81 -14 -7 -52
-27 -85 -45 -159 -88 -165 -91 -188 -77 -12 6 -60 51 -107 99 l-85 86 -102
-102 c-85 -86 -102 -108 -108 -142 -4 -22 -4 -50 0 -61 5 -15 1 -28 -14 -41
-23 -22 -26 -41 -10 -70 9 -17 7 -21 -10 -26 -12 -3 -21 -9 -21 -13 0 -5 -13
-11 -30 -15 -16 -4 -30 -11 -30 -16 0 -5 -7 -9 -15 -9 -9 0 -18 -6 -21 -14 -3
-8 -19 -18 -35 -21 -16 -4 -29 -10 -29 -15 0 -5 -13 -11 -30 -15 -16 -4 -30
-10 -30 -15 0 -5 -10 -12 -22 -16 -13 -4 -25 -9 -28 -13 -16 -19 -94 -51 -125
-51 -57 0 -58 10 -51 405 3 193 6 417 6 499 0 128 2 147 14 136 8 -6 12 -19 9
-28 -5 -12 -1 -11 16 5 17 15 21 28 16 45 -5 20 -4 20 5 6 17 -28 28 -21 24
15 -2 20 -1 27 5 19 12 -20 5 -64 -13 -74 -9 -5 -16 -14 -16 -20 0 -7 13 1 29
16 16 16 27 35 24 42 -3 8 0 14 6 14 6 0 11 -7 11 -15 0 -8 5 -15 11 -15 7 0
9 10 5 28 -4 15 -3 22 1 15 6 -8 13 -9 23 -2 13 8 13 11 -2 20 -10 5 -18 15
-18 22 0 7 4 6 10 -3 9 -13 11 -13 20 0 7 11 9 4 5 -24 -2 -22 -10 -43 -17
-48 -11 -6 -11 -8 0 -8 7 0 16 8 19 18 4 9 10 19 14 22 4 3 9 17 10 32 3 22
-9 41 -71 105 -95 98 -98 103 -66 103 14 0 26 -4 26 -10z m4593 -66 c3 -4 -3
-14 -14 -23 -19 -16 -19 -28 -17 -431 l3 -415 48 -3 c50 -3 60 -15 28 -32 -18
-9 -241 -15 -241 -6 0 2 6 19 13 37 11 27 13 115 9 432 l-4 397 -40 0 c-45 0
-43 13 5 34 32 14 198 22 210 10z m-2463 -69 c59 -16 123 -45 154 -68 18 -13
16 -17 -35 -65 -60 -58 -85 -67 -75 -27 8 31 -25 65 -99 102 -42 22 -64 26
-140 27 -84 1 -97 -2 -158 -32 -82 -41 -137 -107 -167 -202 -32 -104 -22 -216
28 -320 54 -110 162 -197 280 -226 71 -17 120 -17 194 -2 l58 12 0 99 0 100
-80 -5 c-80 -5 -112 4 -68 18 13 4 26 12 30 18 5 7 60 12 154 14 l146 4 -26
-29 c-24 -26 -26 -34 -26 -129 0 -116 7 -108 -105 -131 -138 -27 -212 -35
-310 -30 -96 5 -126 12 -210 55 -64 32 -167 151 -181 207 -4 17 -12 36 -17 43
-19 24 -14 210 7 280 11 34 23 62 28 62 4 0 8 5 8 10 0 6 10 25 23 42 94 132
254 203 437 193 52 -2 120 -12 150 -20z m4078 -420 c1 -220 0 -410 -3 -422 -4
-17 -13 -23 -34 -23 -17 0 -31 6 -35 16 -9 22 -8 819 1 828 4 4 21 6 38 4 l30
-3 3 -400z m-6185 340 c-3 -9 -8 -14 -10 -11 -3 3 -2 9 2 15 9 16 15 13 8 -4z
m-86 -48 c1 -29 1 -30 -8 -9 -5 13 -7 28 -3 33 8 14 9 12 11 -24z m2923 -139
c142 -67 209 -248 148 -395 -12 -29 -25 -53 -30 -53 -4 0 -8 -4 -8 -10 0 -13
-59 -71 -89 -89 -44 -24 -134 -51 -174 -51 -51 0 -143 27 -188 55 -45 29 -85
76 -112 134 -33 69 -30 188 6 258 46 90 121 147 222 172 59 15 172 4 225 -21z
m625 21 c128 -34 197 -102 229 -229 15 -59 15 -69 0 -137 -9 -40 -20 -73 -25
-73 -5 0 -9 -5 -9 -12 0 -20 -49 -77 -93 -106 -48 -33 -137 -62 -192 -62 -44
0 -140 27 -175 48 -32 21 -80 69 -103 105 -20 32 -47 124 -47 163 0 34 32 144
42 144 4 0 8 6 8 13 0 15 83 95 120 116 61 35 174 49 245 30z m1533 -1 c59
-14 117 -59 142 -109 11 -21 20 -40 20 -42 0 -3 -24 -14 -52 -26 -29 -12 -62
-26 -73 -31 -11 -4 -47 -19 -80 -31 -33 -13 -65 -27 -71 -31 -6 -4 -36 -10
-67 -14 -65 -8 -71 -20 -39 -84 52 -102 106 -151 190 -169 58 -12 139 -1 181
26 32 21 18 -2 -26 -42 -81 -72 -212 -86 -316 -34 -70 34 -103 68 -143 147
-24 47 -28 66 -28 146 0 69 4 100 18 126 46 89 109 142 196 166 59 16 91 17
148 2z m884 -18 c84 -43 131 -122 144 -240 7 -60 -9 -200 -24 -209 -5 -3 -12
-15 -16 -26 -8 -28 -50 -71 -99 -103 -37 -23 -52 -26 -127 -26 -76 0 -90 3
-128 27 -23 15 -52 37 -62 47 -20 20 -20 19 -20 -135 0 -169 -2 -174 -55 -161
l-25 6 0 415 0 415 25 6 c40 10 55 -1 55 -41 l0 -36 38 30 c20 17 55 37 77 46
56 21 161 14 217 -15z m759 19 c64 -14 135 -78 143 -131 3 -18 7 -135 8 -261
l3 -227 -31 0 c-35 0 -44 13 -44 61 0 16 -3 29 -6 29 -3 0 -23 -13 -43 -29
-65 -51 -101 -64 -177 -65 -136 -1 -204 57 -204 174 0 76 23 113 91 146 75 37
112 44 227 44 l112 0 0 43 c0 104 -66 167 -175 167 -69 0 -155 -45 -155 -80 0
-23 -20 -40 -46 -40 -31 0 -37 13 -25 55 26 97 168 147 322 114z m284 -7 c6
-4 26 -43 44 -87 18 -44 39 -93 46 -110 23 -51 50 -116 85 -205 44 -111 53
-121 70 -78 7 18 19 47 26 63 7 17 29 71 49 120 20 50 41 99 46 110 4 11 20
49 34 85 39 95 51 110 85 110 38 0 38 -13 4 -88 -14 -31 -30 -68 -36 -82 -15
-38 -62 -148 -83 -195 -15 -34 -34 -79 -60 -145 -10 -25 -33 -76 -50 -115 -18
-38 -41 -92 -51 -118 -33 -84 -110 -133 -189 -120 -31 5 -35 9 -35 34 0 28 2
29 48 29 40 0 52 5 73 28 24 27 46 67 68 128 13 32 5 57 -70 222 -16 34 -29
66 -29 71 0 5 -6 22 -14 38 -13 26 -21 44 -60 136 -7 17 -19 46 -27 62 -26 59
-38 99 -33 107 6 10 45 10 59 0z m-2595 -6 c0 -12 -76 -46 -102 -46 -30 0 -30
-1 -14 -22 39 -56 56 -99 56 -148 0 -64 -24 -113 -84 -167 -25 -23 -51 -53
-58 -67 -11 -24 -8 -29 43 -74 124 -110 139 -133 139 -224 0 -84 -57 -159
-157 -205 -52 -24 -70 -26 -178 -26 -102 -1 -127 2 -165 21 -109 51 -150 155
-96 240 51 80 119 115 269 137 47 7 48 8 32 31 -8 13 -15 41 -15 64 l0 40 -44
0 c-25 0 -48 5 -51 10 -3 6 -15 10 -25 10 -45 0 -130 119 -130 183 0 44 35
120 74 160 70 72 120 86 329 86 97 1 177 -1 177 -3z m-3925 -555 c0 -63 -9
-73 -13 -14 -2 37 3 63 11 63 1 0 2 -22 2 -49z m-30 -93 c-6 -17 -4 -20 9 -15
9 4 16 2 16 -2 0 -12 -25 -21 -36 -13 -12 9 -11 35 1 44 15 12 17 10 10 -14z"/>
<path d="M2222 3550 c-64 -162 -65 -150 12 -150 36 0 66 4 66 10 0 9 -7 26
-48 120 -20 44 -20 45 -30 20z"/>
<path d="M3040 3459 l0 -142 70 5 c98 7 140 49 140 139 0 79 -70 139 -162 139
l-48 0 0 -141z"/>
<path d="M3490 3535 l0 -65 51 0 c73 0 109 22 109 67 0 36 -45 63 -106 63
l-54 0 0 -65z"/>
<path d="M3938 3584 c-35 -18 -68 -82 -68 -129 0 -75 65 -145 135 -145 44 0
97 35 120 80 34 65 5 164 -56 195 -36 19 -96 18 -131 -1z"/>
<path d="M4557 3593 c-4 -3 -7 -66 -7 -140 l0 -133 54 0 c109 0 156 43 156
142 0 65 -22 100 -77 123 -36 15 -114 20 -126 8z"/>
<path d="M5250 3542 c0 -10 -6 -26 -14 -37 -7 -11 -16 -32 -19 -47 -4 -14 -10
-33 -13 -42 -5 -14 4 -16 60 -16 36 0 66 1 66 3 0 12 -34 104 -41 112 -5 5 -9
17 -9 27 0 10 -7 18 -15 18 -8 0 -15 -8 -15 -18z"/>
<path d="M5610 3535 l0 -65 44 0 c62 0 105 17 112 45 14 56 -22 85 -106 85
l-50 0 0 -65z"/>
<path d="M5994 3586 c-3 -7 -4 -35 -2 -62 l3 -49 67 0 c55 0 70 3 82 20 41 54
-3 105 -91 105 -36 0 -55 -4 -59 -14z"/>
<path d="M6608 3582 c-31 -19 -68 -88 -68 -127 0 -69 72 -145 136 -145 132 0
185 191 75 269 -36 26 -105 27 -143 3z"/>
<path d="M649 2707 c-2 -42 -4 -48 -19 -57 -8 -5 -12 -12 -8 -15 3 -4 16 3 28
15 18 18 20 24 9 31 -9 5 -9 9 -3 9 18 0 25 28 8 34 -9 4 -14 -2 -15 -17z"/>
<path d="M688 2683 c7 -3 16 -2 19 1 4 3 -2 6 -13 5 -11 0 -14 -3 -6 -6z"/>
<path d="M530 2610 c0 -5 5 -10 10 -10 6 0 10 5 10 10 0 6 -4 10 -10 10 -5 0
-10 -4 -10 -10z"/>
<path d="M905 2020 c-3 -5 -1 -10 4 -10 6 0 11 5 11 10 0 6 -2 10 -4 10 -3 0
-8 -4 -11 -10z"/>
<path d="M890 1969 c0 -16 4 -28 9 -25 5 3 9 17 9 31 0 14 -4 25 -9 25 -5 0
-9 -14 -9 -31z"/>
<path d="M870 1930 c0 -5 5 -10 10 -10 6 0 10 5 10 10 0 6 -4 10 -10 10 -5 0
-10 -4 -10 -10z"/>
<path d="M900 1930 c0 -5 5 -10 10 -10 6 0 10 5 10 10 0 6 -4 10 -10 10 -5 0
-10 -4 -10 -10z"/>
<path d="M3137 2484 c-92 -50 -119 -156 -78 -302 46 -164 120 -227 240 -207
48 8 98 55 117 111 39 113 -11 304 -100 380 -35 30 -46 34 -95 34 -31 -1 -69
-8 -84 -16z"/>
<path d="M3815 2478 c-59 -40 -70 -65 -73 -166 -5 -125 23 -214 89 -286 l47
-51 69 0 c56 0 74 4 98 23 58 46 70 77 70 188 0 56 -5 112 -12 125 -6 13 -21
46 -34 73 -23 50 -51 86 -68 86 -5 0 -14 7 -21 15 -20 24 -127 19 -165 -7z"/>
<path d="M5379 2482 c-41 -27 -60 -50 -70 -84 -9 -33 -13 -138 -5 -138 3 0 35
14 73 31 37 17 82 37 100 45 17 8 35 14 40 14 4 0 19 9 32 19 22 17 23 21 12
54 -22 66 -123 99 -182 59z"/>
<path d="M6235 2478 c-38 -14 -83 -45 -112 -78 -21 -23 -22 -35 -23 -168 l0
-144 38 -36 c57 -57 92 -72 162 -72 45 0 72 6 95 20 36 22 85 81 85 102 0 8 5
19 11 25 14 14 15 188 2 206 -6 6 -13 23 -16 37 -9 38 -62 86 -114 104 -53 18
-85 19 -128 4z"/>
<path d="M6990 2194 c-58 -32 -80 -60 -79 -104 0 -122 193 -151 307 -47 35 33
54 80 50 128 l-3 44 -115 2 c-106 2 -119 0 -160 -23z"/>
<path d="M4483 2470 c-27 -11 -63 -79 -63 -117 0 -52 34 -143 70 -184 32 -38
39 -41 87 -42 58 -1 99 20 113 59 26 67 0 184 -54 248 -28 34 -38 39 -81 42
-28 2 -60 0 -72 -6z"/>
<path d="M4505 1895 c-98 -24 -145 -69 -145 -138 0 -49 26 -89 79 -123 42 -27
53 -29 143 -29 93 0 98 1 135 31 70 57 70 137 1 204 -23 22 -50 42 -60 46 -10
3 -18 10 -18 15 0 12 -74 9 -135 -6z"/>
</g>
</svg>
